<?xml version="1.0" encoding="UTF-8"?>
<svg viewBox="0 0 1024 1024" xmlns="http://www.w3.org/2000/svg">
    <path id="background" fill="#cbe8ff" stroke="none" d="M 128 1024 C 57.307632 1024 0 966.692383 0 896 L 0 128 C 0 57.307617 57.307632 0 128 0 L 896 0 C 966.692261 0 1024 57.307617 1024 128 L 1024 896 C 1024 966.692383 966.692261 1024 896 1024 L 128 1024 Z"/>
    <linearGradient id="linearGradient1" x1="0" y1="267" x2="0" y2="1024" gradientUnits="userSpaceOnUse">
        <stop offset="1e-05" stop-color="#a0d5ff" stop-opacity="1"/>
        <stop offset="1" stop-color="#498ec4" stop-opacity="1"/>
    </linearGradient>
    <path id="mountain0" fill="url(#linearGradient1)" stroke="none" d="M 128 1024 C 57.307632 1024 0 966.692383 0 896 L 0 452 L 1 454 L 2 456 L 3 456 L 4 457 L 5 458 L 6 459 L 7 460 L 8 461 L 9 463 L 10 464 L 11 467 L 12 469 L 13 471 L 14 473 L 15 473 L 16 474 L 17 476 L 18 477 L 19 477 L 20 478 L 21 479 L 22 480 L 23 481 L 24 481 L 25 482 L 26 483 L 27 484 L 28 485 L 29 487 L 30 490 L 31 491 L 32 492 L 33 492 L 34 493 L 35 492 L 36 490 L 37 489 L 38 488 L 39 489 L 40 491 L 41 491 L 42 491 L 43 490 L 44 490 L 45 490 L 46 490 L 47 490 L 48 491 L 49 492 L 50 493 L 51 493 L 52 492 L 53 492 L 54 493 L 55 494 L 56 496 L 57 498 L 58 498 L 59 499 L 60 499 L 61 499 L 62 498 L 63 497 L 64 497 L 65 497 L 66 496 L 67 494 L 68 494 L 69 493 L 70 491 L 71 490 L 72 489 L 73 489 L 74 488 L 75 489 L 76 490 L 77 491 L 78 492 L 79 493 L 80 494 L 81 495 L 82 496 L 83 498 L 84 499 L 85 501 L 86 501 L 87 501 L 88 500 L 89 500 L 90 499 L 91 499 L 92 499 L 93 500 L 94 501 L 95 501 L 96 501 L 97 501 L 98 501 L 99 500 L 100 501 L 101 501 L 102 500 L 103 499 L 104 499 L 105 498 L 106 498 L 107 499 L 108 499 L 109 498 L 110 497 L 111 497 L 112 496 L 113 496 L 114 496 L 115 495 L 116 495 L 117 494 L 118 493 L 119 493 L 120 493 L 121 493 L 122 493 L 123 492 L 124 490 L 125 489 L 126 487 L 127 486 L 128 484 L 129 482 L 130 481 L 131 482 L 132 483 L 133 484 L 134 485 L 135 484 L 136 484 L 137 483 L 138 483 L 139 482 L 140 482 L 141 481 L 142 480 L 143 480 L 144 480 L 145 481 L 146 481 L 147 481 L 148 479 L 149 478 L 150 478 L 151 478 L 152 478 L 153 477 L 154 476 L 155 475 L 156 473 L 157 471 L 158 469 L 159 466 L 160 465 L 161 464 L 162 463 L 163 462 L 164 462 L 165 462 L 166 462 L 167 462 L 168 463 L 169 463 L 170 463 L 171 464 L 172 464 L 173 464 L 174 465 L 175 466 L 176 466 L 177 468 L 178 469 L 179 471 L 180 473 L 181 474 L 182 474 L 183 474 L 184 475 L 185 476 L 186 476 L 187 476 L 188 476 L 189 476 L 190 474 L 191 472 L 192 471 L 193 471 L 194 470 L 195 469 L 196 469 L 197 467 L 198 465 L 199 464 L 200 464 L 201 463 L 202 462 L 203 461 L 204 460 L 205 460 L 206 461 L 207 460 L 208 459 L 209 458 L 210 457 L 211 457 L 212 457 L 213 456 L 214 456 L 215 456 L 216 456 L 217 455 L 218 454 L 219 453 L 220 452 L 221 451 L 222 449 L 223 448 L 224 447 L 225 445 L 226 443 L 227 442 L 228 440 L 229 439 L 230 437 L 231 435 L 232 433 L 233 431 L 234 431 L 235 430 L 236 429 L 237 428 L 238 427 L 239 426 L 240 425 L 241 424 L 242 423 L 243 422 L 244 421 L 245 420 L 246 418 L 247 416 L 248 415 L 249 413 L 250 412 L 251 411 L 252 410 L 253 409 L 254 409 L 255 409 L 256 409 L 257 409 L 258 410 L 259 410 L 260 411 L 261 412 L 262 412 L 263 411 L 264 410 L 265 408 L 266 408 L 267 406 L 268 405 L 269 403 L 270 402 L 271 401 L 272 400 L 273 400 L 274 399 L 275 399 L 276 398 L 277 396 L 278 395 L 279 394 L 280 392 L 281 389 L 282 386 L 283 383 L 284 380 L 285 378 L 286 377 L 287 376 L 288 373 L 289 370 L 290 367 L 291 364 L 292 363 L 293 363 L 294 362 L 295 361 L 296 360 L 297 360 L 298 360 L 299 358 L 300 358 L 301 359 L 302 360 L 303 360 L 304 361 L 305 361 L 306 362 L 307 362 L 308 361 L 309 361 L 310 360 L 311 360 L 312 360 L 313 359 L 314 358 L 315 357 L 316 356 L 317 357 L 318 358 L 319 358 L 320 358 L 321 358 L 322 359 L 323 360 L 324 360 L 325 360 L 326 361 L 327 362 L 328 362 L 329 361 L 330 361 L 331 360 L 332 360 L 333 359 L 334 360 L 335 361 L 336 362 L 337 364 L 338 365 L 339 367 L 340 368 L 341 368 L 342 367 L 343 367 L 344 367 L 345 367 L 346 366 L 347 366 L 348 367 L 349 368 L 350 370 L 351 370 L 352 370 L 353 370 L 354 369 L 355 368 L 356 366 L 357 364 L 358 362 L 359 362 L 360 362 L 361 362 L 362 362 L 363 362 L 364 362 L 365 363 L 366 363 L 367 363 L 368 361 L 369 359 L 370 357 L 371 355 L 372 353 L 373 351 L 374 349 L 375 347 L 376 345 L 377 343 L 378 341 L 379 339 L 380 335 L 381 332 L 382 329 L 383 326 L 384 323 L 385 321 L 386 319 L 387 317 L 388 315 L 389 314 L 390 313 L 391 311 L 392 309 L 393 307 L 394 305 L 395 304 L 396 302 L 397 300 L 398 298 L 399 296 L 400 294 L 401 292 L 402 291 L 403 290 L 404 289 L 405 287 L 406 286 L 407 284 L 408 282 L 409 281 L 410 280 L 411 279 L 412 278 L 413 277 L 414 275 L 415 275 L 416 273 L 417 272 L 418 271 L 419 270 L 420 269 L 421 268 L 422 267 L 423 267 L 424 268 L 425 268 L 426 269 L 427 269 L 428 270 L 429 270 L 430 271 L 431 271 L 432 272 L 433 273 L 434 273 L 435 274 L 436 276 L 437 279 L 438 281 L 439 283 L 440 286 L 441 287 L 442 289 L 443 290 L 444 290 L 445 290 L 446 290 L 447 291 L 448 291 L 449 291 L 450 291 L 451 291 L 452 290 L 453 289 L 454 289 L 455 290 L 456 292 L 457 293 L 458 294 L 459 294 L 460 294 L 461 293 L 462 293 L 463 292 L 464 291 L 465 291 L 466 291 L 467 291 L 468 291 L 469 290 L 470 289 L 471 289 L 472 290 L 473 291 L 474 291 L 475 292 L 476 293 L 477 293 L 478 292 L 479 291 L 480 291 L 481 292 L 482 294 L 483 295 L 484 296 L 485 297 L 486 297 L 487 298 L 488 299 L 489 300 L 490 302 L 491 303 L 492 305 L 493 306 L 494 307 L 495 307 L 496 307 L 497 307 L 498 309 L 499 310 L 500 309 L 501 309 L 502 308 L 503 308 L 504 306 L 505 305 L 506 305 L 507 305 L 508 305 L 509 306 L 510 308 L 511 309 L 512 310 L 513 311 L 514 311 L 515 311 L 516 312 L 517 314 L 518 315 L 519 316 L 520 317 L 521 319 L 522 320 L 523 321 L 524 321 L 525 322 L 526 324 L 527 325 L 528 326 L 529 328 L 530 329 L 531 331 L 532 333 L 533 334 L 534 334 L 535 334 L 536 334 L 537 334 L 538 335 L 539 336 L 540 337 L 541 338 L 542 337 L 543 338 L 544 340 L 545 342 L 546 344 L 547 347 L 548 348 L 549 349 L 550 352 L 551 354 L 552 356 L 553 358 L 554 360 L 555 362 L 556 363 L 557 363 L 558 364 L 559 367 L 560 369 L 561 371 L 562 373 L 563 375 L 564 377 L 565 378 L 566 379 L 567 380 L 568 380 L 569 382 L 570 383 L 571 384 L 572 385 L 573 387 L 574 388 L 575 389 L 576 390 L 577 391 L 578 392 L 579 392 L 580 392 L 581 391 L 582 390 L 583 390 L 584 391 L 585 392 L 586 394 L 587 396 L 588 397 L 589 398 L 590 399 L 591 400 L 592 401 L 593 403 L 594 405 L 595 406 L 596 406 L 597 406 L 598 406 L 599 407 L 600 408 L 601 408 L 602 407 L 603 407 L 604 407 L 605 407 L 606 407 L 607 407 L 608 407 L 609 407 L 610 407 L 611 408 L 612 409 L 613 411 L 614 413 L 615 414 L 616 415 L 617 416 L 618 417 L 619 416 L 620 417 L 621 418 L 622 419 L 623 421 L 624 422 L 625 423 L 626 423 L 627 423 L 628 423 L 629 422 L 630 420 L 631 418 L 632 415 L 633 413 L 634 412 L 635 411 L 636 410 L 637 411 L 638 411 L 639 411 L 640 410 L 641 409 L 642 409 L 643 407 L 644 406 L 645 405 L 646 404 L 647 403 L 648 402 L 649 401 L 650 400 L 651 399 L 652 399 L 653 400 L 654 400 L 655 401 L 656 401 L 657 401 L 658 401 L 659 401 L 660 400 L 661 400 L 662 399 L 663 398 L 664 396 L 665 393 L 666 392 L 667 390 L 668 389 L 669 389 L 670 389 L 671 389 L 672 388 L 673 386 L 674 385 L 675 385 L 676 384 L 677 385 L 678 385 L 679 385 L 680 384 L 681 383 L 682 384 L 683 384 L 684 384 L 685 384 L 686 384 L 687 385 L 688 385 L 689 385 L 690 385 L 691 384 L 692 383 L 693 381 L 694 379 L 695 377 L 696 376 L 697 376 L 698 374 L 699 372 L 700 370 L 701 369 L 702 367 L 703 365 L 704 363 L 705 362 L 706 361 L 707 359 L 708 359 L 709 358 L 710 356 L 711 354 L 712 353 L 713 351 L 714 349 L 715 346 L 716 345 L 717 345 L 718 344 L 719 344 L 720 344 L 721 344 L 722 343 L 723 342 L 724 340 L 725 338 L 726 337 L 727 336 L 728 336 L 729 334 L 730 333 L 731 331 L 732 330 L 733 329 L 734 328 L 735 327 L 736 327 L 737 327 L 738 326 L 739 326 L 740 326 L 741 326 L 742 326 L 743 326 L 744 325 L 745 322 L 746 320 L 747 317 L 748 315 L 749 314 L 750 314 L 751 315 L 752 315 L 753 314 L 754 314 L 755 314 L 756 313 L 757 312 L 758 312 L 759 311 L 760 309 L 761 308 L 762 308 L 763 308 L 764 307 L 765 306 L 766 305 L 767 305 L 768 305 L 769 305 L 770 305 L 771 304 L 772 303 L 773 303 L 774 302 L 775 301 L 776 300 L 777 299 L 778 298 L 779 296 L 780 296 L 781 295 L 782 294 L 783 293 L 784 293 L 785 292 L 786 292 L 787 290 L 788 289 L 789 288 L 790 288 L 791 288 L 792 287 L 793 286 L 794 286 L 795 285 L 796 284 L 797 283 L 798 281 L 799 280 L 800 280 L 801 280 L 802 280 L 803 279 L 804 278 L 805 277 L 806 277 L 807 278 L 808 278 L 809 278 L 810 279 L 811 279 L 812 279 L 813 279 L 814 278 L 815 278 L 816 279 L 817 281 L 818 283 L 819 284 L 820 285 L 821 285 L 822 285 L 823 286 L 824 287 L 825 288 L 826 289 L 827 290 L 828 291 L 829 291 L 830 291 L 831 291 L 832 291 L 833 291 L 834 291 L 835 293 L 836 295 L 837 298 L 838 300 L 839 301 L 840 302 L 841 302 L 842 302 L 843 302 L 844 303 L 845 304 L 846 305 L 847 305 L 848 306 L 849 305 L 850 305 L 851 305 L 852 307 L 853 308 L 854 309 L 855 309 L 856 310 L 857 311 L 858 311 L 859 310 L 860 310 L 861 309 L 862 308 L 863 306 L 864 305 L 865 305 L 866 305 L 867 304 L 868 302 L 869 301 L 870 301 L 871 300 L 872 300 L 873 300 L 874 303 L 875 305 L 876 307 L 877 308 L 878 309 L 879 309 L 880 309 L 881 309 L 882 310 L 883 309 L 884 308 L 885 307 L 886 307 L 887 308 L 888 308 L 889 308 L 890 309 L 891 310 L 892 311 L 893 311 L 894 312 L 895 314 L 896 315 L 897 315 L 898 316 L 899 318 L 900 321 L 901 324 L 902 325 L 903 326 L 904 326 L 905 327 L 906 328 L 907 330 L 908 332 L 909 333 L 910 333 L 911 334 L 912 335 L 913 337 L 914 338 L 915 338 L 916 338 L 917 339 L 918 339 L 919 339 L 920 340 L 921 339 L 922 339 L 923 339 L 924 339 L 925 339 L 926 340 L 927 340 L 928 340 L 929 339 L 930 337 L 931 336 L 932 334 L 933 333 L 934 332 L 935 331 L 936 331 L 937 330 L 938 330 L 939 331 L 940 332 L 941 332 L 942 332 L 943 331 L 944 332 L 945 333 L 946 334 L 947 334 L 948 335 L 949 337 L 950 338 L 951 339 L 952 340 L 953 341 L 954 342 L 955 343 L 956 344 L 957 346 L 958 347 L 959 348 L 960 348 L 961 347 L 962 345 L 963 344 L 964 344 L 965 344 L 966 343 L 967 342 L 968 342 L 969 342 L 970 342 L 971 343 L 972 343 L 973 344 L 974 345 L 975 345 L 976 346 L 977 346 L 978 347 L 979 348 L 980 349 L 981 350 L 982 351 L 983 350 L 984 350 L 985 351 L 986 351 L 987 350 L 988 349 L 989 348 L 990 348 L 991 346 L 992 344 L 993 343 L 994 343 L 995 342 L 996 342 L 997 343 L 998 343 L 999 343 L 1000 342 L 1001 342 L 1002 341 L 1003 340 L 1004 340 L 1005 339 L 1006 338 L 1007 338 L 1008 337 L 1009 336 L 1010 335 L 1011 334 L 1012 333 L 1013 332 L 1014 333 L 1015 335 L 1016 336 L 1017 337 L 1018 337 L 1019 336 L 1020 335 L 1021 334 L 1022 334 L 1023 334 L 1024 334 L 1024 896 C 1024 966.692383 966.692261 1024 896 1024 L 128 1024 Z"/>
    <linearGradient id="linearGradient2" x1="0" y1="586" x2="0" y2="1024" gradientUnits="userSpaceOnUse">
        <stop offset="1e-05" stop-color="#498ec4" stop-opacity="1"/>
        <stop offset="1" stop-color="#1d6caa" stop-opacity="1"/>
    </linearGradient>
    <path id="mountain1" fill="url(#linearGradient2)" stroke="none" d="M 128 1024 C 57.307632 1024 0 966.692383 0 896 L 0 626 L 1 626 L 2 627 L 3 628 L 4 628 L 5 628 L 6 629 L 7 630 L 8 630 L 9 630 L 10 630 L 11 629 L 12 629 L 13 629 L 14 628 L 15 628 L 16 628 L 17 628 L 18 627 L 19 626 L 20 625 L 21 625 L 22 625 L 23 625 L 24 624 L 25 624 L 26 623 L 27 622 L 28 621 L 29 621 L 30 620 L 31 620 L 32 619 L 33 619 L 34 619 L 35 618 L 36 618 L 37 617 L 38 617 L 39 617 L 40 617 L 41 618 L 42 618 L 43 619 L 44 620 L 45 620 L 46 621 L 47 621 L 48 621 L 49 621 L 50 621 L 51 621 L 52 621 L 53 621 L 54 621 L 55 621 L 56 620 L 57 620 L 58 620 L 59 620 L 60 619 L 61 619 L 62 618 L 63 618 L 64 617 L 65 617 L 66 617 L 67 617 L 68 618 L 69 619 L 70 619 L 71 619 L 72 619 L 73 618 L 74 618 L 75 618 L 76 618 L 77 618 L 78 618 L 79 618 L 80 618 L 81 619 L 82 619 L 83 620 L 84 621 L 85 621 L 86 621 L 87 621 L 88 621 L 89 620 L 90 620 L 91 620 L 92 621 L 93 621 L 94 621 L 95 622 L 96 622 L 97 623 L 98 623 L 99 623 L 100 624 L 101 624 L 102 624 L 103 623 L 104 623 L 105 623 L 106 624 L 107 624 L 108 625 L 109 625 L 110 625 L 111 624 L 112 624 L 113 624 L 114 624 L 115 624 L 116 624 L 117 623 L 118 622 L 119 621 L 120 620 L 121 619 L 122 618 L 123 618 L 124 617 L 125 616 L 126 615 L 127 614 L 128 613 L 129 612 L 130 612 L 131 612 L 132 612 L 133 612 L 134 611 L 135 611 L 136 610 L 137 610 L 138 610 L 139 610 L 140 610 L 141 610 L 142 610 L 143 609 L 144 609 L 145 610 L 146 610 L 147 611 L 148 611 L 149 611 L 150 611 L 151 612 L 152 613 L 153 614 L 154 614 L 155 614 L 156 614 L 157 615 L 158 615 L 159 616 L 160 617 L 161 618 L 162 618 L 163 618 L 164 618 L 165 617 L 166 617 L 167 616 L 168 616 L 169 616 L 170 616 L 171 615 L 172 614 L 173 613 L 174 613 L 175 613 L 176 613 L 177 613 L 178 612 L 179 611 L 180 610 L 181 609 L 182 608 L 183 607 L 184 606 L 185 606 L 186 606 L 187 606 L 188 606 L 189 605 L 190 604 L 191 604 L 192 603 L 193 603 L 194 603 L 195 603 L 196 603 L 197 603 L 198 603 L 199 603 L 200 603 L 201 603 L 202 602 L 203 602 L 204 601 L 205 601 L 206 601 L 207 600 L 208 600 L 209 600 L 210 600 L 211 600 L 212 599 L 213 599 L 214 598 L 215 598 L 216 597 L 217 597 L 218 596 L 219 595 L 220 595 L 221 594 L 222 593 L 223 593 L 224 592 L 225 591 L 226 591 L 227 590 L 228 590 L 229 590 L 230 589 L 231 588 L 232 588 L 233 588 L 234 588 L 235 587 L 236 587 L 237 586 L 238 586 L 239 586 L 240 586 L 241 587 L 242 587 L 243 586 L 244 586 L 245 586 L 246 587 L 247 587 L 248 588 L 249 589 L 250 590 L 251 589 L 252 589 L 253 590 L 254 590 L 255 591 L 256 591 L 257 591 L 258 592 L 259 591 L 260 592 L 261 592 L 262 592 L 263 593 L 264 594 L 265 595 L 266 596 L 267 596 L 268 597 L 269 597 L 270 597 L 271 597 L 272 597 L 273 598 L 274 600 L 275 601 L 276 603 L 277 603 L 278 604 L 279 605 L 280 607 L 281 608 L 282 609 L 283 610 L 284 610 L 285 609 L 286 610 L 287 610 L 288 611 L 289 611 L 290 612 L 291 613 L 292 614 L 293 615 L 294 616 L 295 616 L 296 616 L 297 616 L 298 616 L 299 617 L 300 617 L 301 617 L 302 616 L 303 616 L 304 616 L 305 616 L 306 617 L 307 617 L 308 617 L 309 617 L 310 617 L 311 618 L 312 618 L 313 619 L 314 619 L 315 619 L 316 619 L 317 620 L 318 620 L 319 621 L 320 622 L 321 623 L 322 624 L 323 624 L 324 625 L 325 626 L 326 627 L 327 628 L 328 629 L 329 630 L 330 631 L 331 632 L 332 633 L 333 634 L 334 635 L 335 635 L 336 634 L 337 634 L 338 634 L 339 635 L 340 635 L 341 636 L 342 636 L 343 637 L 344 637 L 345 637 L 346 638 L 347 638 L 348 638 L 349 638 L 350 638 L 351 639 L 352 639 L 353 639 L 354 639 L 355 639 L 356 639 L 357 640 L 358 640 L 359 641 L 360 641 L 361 641 L 362 641 L 363 641 L 364 641 L 365 641 L 366 641 L 367 641 L 368 641 L 369 641 L 370 641 L 371 642 L 372 642 L 373 643 L 374 643 L 375 643 L 376 644 L 377 644 L 378 644 L 379 644 L 380 644 L 381 644 L 382 644 L 383 645 L 384 646 L 385 647 L 386 648 L 387 649 L 388 651 L 389 652 L 390 653 L 391 654 L 392 654 L 393 654 L 394 654 L 395 655 L 396 655 L 397 655 L 398 655 L 399 655 L 400 654 L 401 654 L 402 654 L 403 654 L 404 654 L 405 653 L 406 653 L 407 651 L 408 650 L 409 648 L 410 647 L 411 646 L 412 645 L 413 644 L 414 643 L 415 643 L 416 642 L 417 642 L 418 642 L 419 643 L 420 644 L 421 644 L 422 645 L 423 646 L 424 646 L 425 646 L 426 646 L 427 646 L 428 645 L 429 645 L 430 644 L 431 643 L 432 642 L 433 641 L 434 641 L 435 640 L 436 640 L 437 640 L 438 640 L 439 640 L 440 640 L 441 640 L 442 640 L 443 640 L 444 640 L 445 640 L 446 639 L 447 639 L 448 640 L 449 640 L 450 641 L 451 641 L 452 641 L 453 641 L 454 641 L 455 641 L 456 642 L 457 642 L 458 642 L 459 641 L 460 640 L 461 640 L 462 640 L 463 640 L 464 640 L 465 639 L 466 639 L 467 639 L 468 639 L 469 639 L 470 639 L 471 640 L 472 641 L 473 642 L 474 644 L 475 645 L 476 646 L 477 647 L 478 647 L 479 648 L 480 649 L 481 649 L 482 649 L 483 648 L 484 648 L 485 649 L 486 649 L 487 649 L 488 649 L 489 649 L 490 648 L 491 648 L 492 647 L 493 647 L 494 647 L 495 647 L 496 647 L 497 646 L 498 645 L 499 644 L 500 644 L 501 644 L 502 644 L 503 643 L 504 643 L 505 643 L 506 642 L 507 641 L 508 641 L 509 640 L 510 639 L 511 637 L 512 636 L 513 635 L 514 634 L 515 634 L 516 634 L 517 634 L 518 634 L 519 633 L 520 632 L 521 630 L 522 630 L 523 629 L 524 627 L 525 626 L 526 625 L 527 625 L 528 625 L 529 625 L 530 624 L 531 624 L 532 623 L 533 622 L 534 622 L 535 621 L 536 622 L 537 622 L 538 622 L 539 623 L 540 623 L 541 624 L 542 624 L 543 625 L 544 626 L 545 627 L 546 627 L 547 627 L 548 628 L 549 629 L 550 629 L 551 629 L 552 630 L 553 630 L 554 631 L 555 632 L 556 632 L 557 633 L 558 633 L 559 634 L 560 634 L 561 635 L 562 635 L 563 636 L 564 637 L 565 638 L 566 639 L 567 640 L 568 640 L 569 641 L 570 642 L 571 643 L 572 643 L 573 644 L 574 645 L 575 645 L 576 645 L 577 645 L 578 645 L 579 644 L 580 644 L 581 644 L 582 644 L 583 644 L 584 643 L 585 643 L 586 642 L 587 642 L 588 642 L 589 641 L 590 641 L 591 640 L 592 640 L 593 640 L 594 639 L 595 640 L 596 640 L 597 641 L 598 641 L 599 642 L 600 643 L 601 643 L 602 644 L 603 645 L 604 645 L 605 645 L 606 645 L 607 645 L 608 645 L 609 645 L 610 646 L 611 645 L 612 645 L 613 645 L 614 645 L 615 645 L 616 645 L 617 644 L 618 644 L 619 643 L 620 643 L 621 643 L 622 644 L 623 645 L 624 646 L 625 646 L 626 646 L 627 646 L 628 645 L 629 644 L 630 643 L 631 643 L 632 642 L 633 642 L 634 642 L 635 643 L 636 642 L 637 642 L 638 641 L 639 641 L 640 641 L 641 641 L 642 641 L 643 642 L 644 642 L 645 642 L 646 642 L 647 642 L 648 642 L 649 643 L 650 643 L 651 642 L 652 642 L 653 641 L 654 641 L 655 641 L 656 641 L 657 640 L 658 640 L 659 640 L 660 639 L 661 639 L 662 639 L 663 639 L 664 639 L 665 640 L 666 640 L 667 639 L 668 639 L 669 638 L 670 638 L 671 638 L 672 639 L 673 639 L 674 638 L 675 638 L 676 637 L 677 637 L 678 637 L 679 637 L 680 636 L 681 636 L 682 636 L 683 635 L 684 635 L 685 635 L 686 635 L 687 636 L 688 636 L 689 636 L 690 637 L 691 637 L 692 637 L 693 637 L 694 637 L 695 637 L 696 637 L 697 637 L 698 637 L 699 636 L 700 635 L 701 634 L 702 633 L 703 633 L 704 632 L 705 631 L 706 630 L 707 629 L 708 629 L 709 628 L 710 627 L 711 627 L 712 626 L 713 625 L 714 624 L 715 623 L 716 622 L 717 621 L 718 620 L 719 620 L 720 619 L 721 619 L 722 619 L 723 618 L 724 618 L 725 619 L 726 619 L 727 620 L 728 621 L 729 622 L 730 623 L 731 624 L 732 625 L 733 626 L 734 627 L 735 628 L 736 629 L 737 629 L 738 629 L 739 628 L 740 628 L 741 627 L 742 627 L 743 627 L 744 627 L 745 627 L 746 627 L 747 627 L 748 626 L 749 627 L 750 627 L 751 627 L 752 627 L 753 627 L 754 627 L 755 626 L 756 626 L 757 626 L 758 626 L 759 626 L 760 626 L 761 626 L 762 626 L 763 626 L 764 625 L 765 625 L 766 625 L 767 625 L 768 626 L 769 627 L 770 627 L 771 628 L 772 628 L 773 628 L 774 629 L 775 630 L 776 630 L 777 631 L 778 631 L 779 630 L 780 630 L 781 630 L 782 629 L 783 629 L 784 628 L 785 628 L 786 627 L 787 627 L 788 627 L 789 627 L 790 628 L 791 628 L 792 629 L 793 629 L 794 629 L 795 629 L 796 629 L 797 630 L 798 630 L 799 630 L 800 630 L 801 630 L 802 629 L 803 628 L 804 628 L 805 627 L 806 627 L 807 626 L 808 626 L 809 625 L 810 624 L 811 623 L 812 622 L 813 620 L 814 619 L 815 619 L 816 618 L 817 617 L 818 616 L 819 615 L 820 614 L 821 612 L 822 611 L 823 611 L 824 611 L 825 611 L 826 611 L 827 611 L 828 611 L 829 611 L 830 610 L 831 611 L 832 611 L 833 611 L 834 611 L 835 611 L 836 611 L 837 611 L 838 610 L 839 611 L 840 611 L 841 612 L 842 613 L 843 613 L 844 613 L 845 614 L 846 615 L 847 616 L 848 617 L 849 618 L 850 618 L 851 618 L 852 618 L 853 618 L 854 619 L 855 620 L 856 621 L 857 622 L 858 622 L 859 623 L 860 623 L 861 624 L 862 625 L 863 625 L 864 626 L 865 626 L 866 627 L 867 627 L 868 628 L 869 629 L 870 630 L 871 631 L 872 632 L 873 632 L 874 633 L 875 633 L 876 634 L 877 635 L 878 637 L 879 639 L 880 640 L 881 641 L 882 642 L 883 643 L 884 645 L 885 646 L 886 648 L 887 649 L 888 651 L 889 652 L 890 653 L 891 654 L 892 654 L 893 655 L 894 656 L 895 657 L 896 658 L 897 659 L 898 660 L 899 660 L 900 660 L 901 661 L 902 663 L 903 664 L 904 666 L 905 666 L 906 667 L 907 667 L 908 668 L 909 668 L 910 668 L 911 669 L 912 669 L 913 669 L 914 670 L 915 670 L 916 670 L 917 671 L 918 671 L 919 671 L 920 671 L 921 671 L 922 670 L 923 669 L 924 668 L 925 667 L 926 667 L 927 667 L 928 667 L 929 668 L 930 668 L 931 668 L 932 668 L 933 668 L 934 668 L 935 668 L 936 668 L 937 668 L 938 668 L 939 667 L 940 667 L 941 667 L 942 667 L 943 668 L 944 668 L 945 668 L 946 667 L 947 666 L 948 665 L 949 664 L 950 663 L 951 663 L 952 663 L 953 663 L 954 664 L 955 664 L 956 664 L 957 664 L 958 664 L 959 664 L 960 664 L 961 664 L 962 663 L 963 663 L 964 663 L 965 662 L 966 662 L 967 662 L 968 663 L 969 663 L 970 664 L 971 665 L 972 665 L 973 666 L 974 666 L 975 667 L 976 668 L 977 668 L 978 669 L 979 668 L 980 668 L 981 668 L 982 667 L 983 667 L 984 667 L 985 666 L 986 666 L 987 665 L 988 666 L 989 666 L 990 666 L 991 667 L 992 667 L 993 668 L 994 668 L 995 669 L 996 669 L 997 670 L 998 670 L 999 670 L 1000 670 L 1001 671 L 1002 671 L 1003 672 L 1004 672 L 1005 673 L 1006 674 L 1007 674 L 1008 675 L 1009 675 L 1010 675 L 1011 675 L 1012 675 L 1013 675 L 1014 675 L 1015 674 L 1016 674 L 1017 673 L 1018 673 L 1019 672 L 1020 672 L 1021 673 L 1022 673 L 1023 673 L 1024 673 L 1024 896 C 1024 966.692383 966.692261 1024 896 1024 L 128 1024 Z"/>
    <linearGradient id="linearGradient3" x1="0" y1="691" x2="0" y2="1024" gradientUnits="userSpaceOnUse">
        <stop offset="1e-05" stop-color="#1d6caa" stop-opacity="1"/>
        <stop offset="1" stop-color="#0e5a95" stop-opacity="1"/>
    </linearGradient>
    <path id="mountain2" fill="url(#linearGradient3)" stroke="none" d="M 128 1024 C 57.307632 1024 0 966.692383 0 896 L 0 731 L 1 731 L 2 731 L 3 732 L 4 732 L 5 731 L 6 731 L 7 731 L 8 732 L 9 732 L 10 732 L 11 732 L 12 731 L 13 731 L 14 730 L 15 729 L 16 728 L 17 728 L 18 728 L 19 728 L 20 727 L 21 727 L 22 727 L 23 726 L 24 726 L 25 725 L 26 724 L 27 723 L 28 722 L 29 721 L 30 721 L 31 720 L 32 720 L 33 720 L 34 720 L 35 720 L 36 720 L 37 720 L 38 720 L 39 720 L 40 720 L 41 720 L 42 719 L 43 719 L 44 719 L 45 718 L 46 718 L 47 717 L 48 717 L 49 716 L 50 716 L 51 715 L 52 715 L 53 715 L 54 714 L 55 714 L 56 714 L 57 714 L 58 714 L 59 714 L 60 714 L 61 714 L 62 714 L 63 714 L 64 714 L 65 714 L 66 714 L 67 714 L 68 713 L 69 713 L 70 713 L 71 713 L 72 713 L 73 713 L 74 712 L 75 712 L 76 712 L 77 711 L 78 710 L 79 709 L 80 708 L 81 707 L 82 706 L 83 705 L 84 705 L 85 704 L 86 703 L 87 703 L 88 702 L 89 702 L 90 701 L 91 701 L 92 700 L 93 699 L 94 699 L 95 699 L 96 699 L 97 699 L 98 699 L 99 699 L 100 698 L 101 698 L 102 699 L 103 699 L 104 699 L 105 699 L 106 699 L 107 698 L 108 698 L 109 697 L 110 697 L 111 696 L 112 696 L 113 695 L 114 695 L 115 695 L 116 695 L 117 695 L 118 695 L 119 695 L 120 695 L 121 695 L 122 695 L 123 696 L 124 696 L 125 697 L 126 697 L 127 698 L 128 699 L 129 699 L 130 700 L 131 700 L 132 700 L 133 701 L 134 701 L 135 702 L 136 702 L 137 703 L 138 703 L 139 703 L 140 704 L 141 704 L 142 704 L 143 705 L 144 705 L 145 705 L 146 704 L 147 704 L 148 703 L 149 703 L 150 702 L 151 702 L 152 702 L 153 703 L 154 703 L 155 704 L 156 704 L 157 704 L 158 703 L 159 702 L 160 702 L 161 701 L 162 701 L 163 700 L 164 700 L 165 699 L 166 699 L 167 699 L 168 699 L 169 699 L 170 699 L 171 699 L 172 699 L 173 698 L 174 698 L 175 698 L 176 698 L 177 697 L 178 697 L 179 696 L 180 695 L 181 695 L 182 694 L 183 694 L 184 694 L 185 694 L 186 694 L 187 693 L 188 693 L 189 693 L 190 693 L 191 693 L 192 693 L 193 692 L 194 692 L 195 692 L 196 692 L 197 692 L 198 692 L 199 691 L 200 691 L 201 691 L 202 692 L 203 692 L 204 692 L 205 693 L 206 693 L 207 694 L 208 694 L 209 695 L 210 696 L 211 696 L 212 697 L 213 697 L 214 697 L 215 698 L 216 698 L 217 699 L 218 700 L 219 700 L 220 700 L 221 700 L 222 700 L 223 700 L 224 700 L 225 700 L 226 700 L 227 701 L 228 701 L 229 702 L 230 702 L 231 702 L 232 702 L 233 701 L 234 701 L 235 702 L 236 702 L 237 702 L 238 701 L 239 701 L 240 701 L 241 701 L 242 701 L 243 701 L 244 701 L 245 700 L 246 700 L 247 700 L 248 699 L 249 699 L 250 700 L 251 699 L 252 699 L 253 699 L 254 699 L 255 699 L 256 699 L 257 699 L 258 699 L 259 700 L 260 701 L 261 702 L 262 703 L 263 704 L 264 704 L 265 704 L 266 704 L 267 703 L 268 703 L 269 703 L 270 703 L 271 703 L 272 703 L 273 703 L 274 703 L 275 703 L 276 703 L 277 703 L 278 704 L 279 704 L 280 704 L 281 704 L 282 705 L 283 705 L 284 705 L 285 705 L 286 706 L 287 707 L 288 708 L 289 708 L 290 709 L 291 710 L 292 710 L 293 711 L 294 712 L 295 712 L 296 712 L 297 712 L 298 712 L 299 712 L 300 712 L 301 712 L 302 711 L 303 711 L 304 712 L 305 712 L 306 712 L 307 713 L 308 713 L 309 713 L 310 713 L 311 714 L 312 715 L 313 715 L 314 715 L 315 716 L 316 716 L 317 717 L 318 717 L 319 718 L 320 718 L 321 719 L 322 719 L 323 720 L 324 720 L 325 720 L 326 720 L 327 720 L 328 720 L 329 720 L 330 720 L 331 720 L 332 721 L 333 721 L 334 721 L 335 721 L 336 722 L 337 722 L 338 723 L 339 723 L 340 724 L 341 724 L 342 724 L 343 725 L 344 725 L 345 725 L 346 724 L 347 724 L 348 724 L 349 725 L 350 725 L 351 725 L 352 725 L 353 725 L 354 725 L 355 725 L 356 725 L 357 725 L 358 724 L 359 724 L 360 723 L 361 723 L 362 722 L 363 721 L 364 721 L 365 720 L 366 720 L 367 719 L 368 719 L 369 719 L 370 719 L 371 718 L 372 717 L 373 717 L 374 716 L 375 715 L 376 715 L 377 714 L 378 714 L 379 713 L 380 712 L 381 712 L 382 712 L 383 712 L 384 712 L 385 712 L 386 712 L 387 712 L 388 712 L 389 712 L 390 712 L 391 712 L 392 712 L 393 712 L 394 712 L 395 712 L 396 712 L 397 712 L 398 712 L 399 711 L 400 711 L 401 711 L 402 711 L 403 712 L 404 712 L 405 713 L 406 713 L 407 713 L 408 713 L 409 713 L 410 712 L 411 712 L 412 712 L 413 713 L 414 714 L 415 714 L 416 715 L 417 716 L 418 716 L 419 716 L 420 716 L 421 716 L 422 717 L 423 718 L 424 718 L 425 719 L 426 719 L 427 720 L 428 721 L 429 721 L 430 722 L 431 723 L 432 723 L 433 723 L 434 724 L 435 724 L 436 724 L 437 724 L 438 725 L 439 726 L 440 726 L 441 727 L 442 728 L 443 729 L 444 730 L 445 730 L 446 731 L 447 731 L 448 731 L 449 731 L 450 731 L 451 731 L 452 732 L 453 732 L 454 732 L 455 731 L 456 731 L 457 731 L 458 731 L 459 731 L 460 731 L 461 731 L 462 731 L 463 731 L 464 731 L 465 730 L 466 730 L 467 729 L 468 729 L 469 729 L 470 728 L 471 728 L 472 728 L 473 728 L 474 729 L 475 729 L 476 730 L 477 729 L 478 729 L 479 728 L 480 727 L 481 726 L 482 725 L 483 725 L 484 725 L 485 725 L 486 724 L 487 723 L 488 723 L 489 722 L 490 721 L 491 721 L 492 721 L 493 721 L 494 721 L 495 721 L 496 721 L 497 722 L 498 722 L 499 722 L 500 722 L 501 722 L 502 722 L 503 721 L 504 721 L 505 720 L 506 719 L 507 719 L 508 718 L 509 718 L 510 718 L 511 718 L 512 718 L 513 718 L 514 718 L 515 719 L 516 720 L 517 720 L 518 721 L 519 721 L 520 721 L 521 721 L 522 721 L 523 721 L 524 721 L 525 721 L 526 721 L 527 721 L 528 721 L 529 721 L 530 720 L 531 720 L 532 719 L 533 719 L 534 719 L 535 719 L 536 719 L 537 719 L 538 719 L 539 719 L 540 719 L 541 719 L 542 720 L 543 720 L 544 719 L 545 719 L 546 719 L 547 719 L 548 719 L 549 719 L 550 719 L 551 719 L 552 718 L 553 718 L 554 717 L 555 717 L 556 717 L 557 717 L 558 716 L 559 716 L 560 715 L 561 715 L 562 714 L 563 714 L 564 714 L 565 714 L 566 713 L 567 713 L 568 713 L 569 712 L 570 711 L 571 711 L 572 710 L 573 710 L 574 710 L 575 710 L 576 710 L 577 710 L 578 710 L 579 710 L 580 709 L 581 709 L 582 709 L 583 708 L 584 708 L 585 707 L 586 707 L 587 707 L 588 706 L 589 707 L 590 707 L 591 707 L 592 707 L 593 707 L 594 707 L 595 706 L 596 706 L 597 705 L 598 705 L 599 705 L 600 705 L 601 705 L 602 705 L 603 706 L 604 706 L 605 707 L 606 707 L 607 707 L 608 707 L 609 707 L 610 707 L 611 707 L 612 707 L 613 707 L 614 707 L 615 707 L 616 708 L 617 709 L 618 710 L 619 711 L 620 712 L 621 712 L 622 713 L 623 713 L 624 713 L 625 714 L 626 714 L 627 714 L 628 713 L 629 713 L 630 713 L 631 714 L 632 714 L 633 715 L 634 716 L 635 717 L 636 717 L 637 717 L 638 718 L 639 718 L 640 718 L 641 718 L 642 718 L 643 718 L 644 718 L 645 719 L 646 720 L 647 720 L 648 721 L 649 721 L 650 721 L 651 722 L 652 723 L 653 724 L 654 725 L 655 725 L 656 725 L 657 726 L 658 726 L 659 727 L 660 728 L 661 728 L 662 728 L 663 728 L 664 728 L 665 728 L 666 728 L 667 729 L 668 729 L 669 730 L 670 731 L 671 732 L 672 733 L 673 734 L 674 735 L 675 737 L 676 738 L 677 739 L 678 740 L 679 740 L 680 741 L 681 742 L 682 742 L 683 743 L 684 745 L 685 746 L 686 747 L 687 748 L 688 748 L 689 748 L 690 748 L 691 749 L 692 749 L 693 750 L 694 750 L 695 750 L 696 750 L 697 750 L 698 751 L 699 752 L 700 752 L 701 753 L 702 753 L 703 753 L 704 753 L 705 754 L 706 755 L 707 756 L 708 757 L 709 758 L 710 759 L 711 759 L 712 760 L 713 760 L 714 761 L 715 760 L 716 760 L 717 761 L 718 761 L 719 761 L 720 762 L 721 762 L 722 762 L 723 762 L 724 762 L 725 762 L 726 762 L 727 762 L 728 762 L 729 761 L 730 761 L 731 761 L 732 761 L 733 761 L 734 762 L 735 762 L 736 763 L 737 763 L 738 763 L 739 763 L 740 763 L 741 763 L 742 764 L 743 764 L 744 764 L 745 765 L 746 765 L 747 765 L 748 766 L 749 766 L 750 766 L 751 766 L 752 766 L 753 766 L 754 766 L 755 766 L 756 767 L 757 767 L 758 768 L 759 768 L 760 769 L 761 770 L 762 771 L 763 771 L 764 772 L 765 773 L 766 773 L 767 774 L 768 774 L 769 774 L 770 775 L 771 775 L 772 776 L 773 776 L 774 777 L 775 778 L 776 779 L 777 780 L 778 781 L 779 782 L 780 783 L 781 783 L 782 784 L 783 785 L 784 785 L 785 786 L 786 787 L 787 788 L 788 789 L 789 790 L 790 791 L 791 791 L 792 791 L 793 791 L 794 791 L 795 791 L 796 791 L 797 790 L 798 790 L 799 790 L 800 790 L 801 790 L 802 791 L 803 791 L 804 792 L 805 793 L 806 793 L 807 793 L 808 794 L 809 794 L 810 794 L 811 795 L 812 795 L 813 795 L 814 795 L 815 795 L 816 796 L 817 796 L 818 796 L 819 796 L 820 796 L 821 796 L 822 796 L 823 796 L 824 796 L 825 797 L 826 797 L 827 798 L 828 798 L 829 798 L 830 797 L 831 797 L 832 796 L 833 796 L 834 796 L 835 797 L 836 797 L 837 798 L 838 799 L 839 799 L 840 799 L 841 799 L 842 800 L 843 800 L 844 800 L 845 800 L 846 800 L 847 800 L 848 800 L 849 800 L 850 800 L 851 800 L 852 800 L 853 800 L 854 800 L 855 799 L 856 799 L 857 799 L 858 800 L 859 800 L 860 799 L 861 799 L 862 799 L 863 800 L 864 800 L 865 801 L 866 801 L 867 801 L 868 801 L 869 801 L 870 801 L 871 802 L 872 802 L 873 802 L 874 803 L 875 803 L 876 803 L 877 803 L 878 803 L 879 803 L 880 803 L 881 803 L 882 803 L 883 803 L 884 803 L 885 803 L 886 803 L 887 803 L 888 803 L 889 804 L 890 804 L 891 805 L 892 806 L 893 806 L 894 807 L 895 808 L 896 809 L 897 809 L 898 810 L 899 811 L 900 812 L 901 813 L 902 813 L 903 814 L 904 815 L 905 815 L 906 816 L 907 816 L 908 816 L 909 816 L 910 816 L 911 817 L 912 817 L 913 817 L 914 817 L 915 817 L 916 817 L 917 817 L 918 817 L 919 817 L 920 817 L 921 816 L 922 816 L 923 815 L 924 815 L 925 814 L 926 815 L 927 815 L 928 815 L 929 815 L 930 815 L 931 814 L 932 814 L 933 813 L 934 813 L 935 812 L 936 812 L 937 811 L 938 810 L 939 808 L 940 807 L 941 805 L 942 804 L 943 804 L 944 803 L 945 802 L 946 801 L 947 800 L 948 799 L 949 798 L 950 797 L 951 797 L 952 796 L 953 795 L 954 795 L 955 795 L 956 794 L 957 794 L 958 793 L 959 793 L 960 794 L 961 794 L 962 794 L 963 795 L 964 795 L 965 796 L 966 796 L 967 796 L 968 797 L 969 797 L 970 798 L 971 798 L 972 798 L 973 798 L 974 798 L 975 798 L 976 797 L 977 797 L 978 797 L 979 797 L 980 796 L 981 795 L 982 795 L 983 794 L 984 794 L 985 793 L 986 792 L 987 790 L 988 789 L 989 789 L 990 788 L 991 788 L 992 787 L 993 787 L 994 787 L 995 786 L 996 786 L 997 785 L 998 785 L 999 785 L 1000 785 L 1001 785 L 1002 785 L 1003 784 L 1004 784 L 1005 784 L 1006 784 L 1007 784 L 1008 784 L 1009 784 L 1010 784 L 1011 784 L 1012 783 L 1013 783 L 1014 782 L 1015 782 L 1016 782 L 1017 782 L 1018 781 L 1019 781 L 1020 782 L 1021 782 L 1022 782 L 1023 782 L 1024 782 L 1024 896 C 1024 966.692383 966.692261 1024 896 1024 L 128 1024 Z"/>
    <linearGradient id="linearGradient4" x1="0" y1="703" x2="0" y2="1024" gradientUnits="userSpaceOnUse">
        <stop offset="1e-05" stop-color="#0e5a95" stop-opacity="1"/>
        <stop offset="1" stop-color="#153b59" stop-opacity="1"/>
    </linearGradient>
    <path id="mountain3" fill="url(#linearGradient4)" stroke="none" d="M 128 1024 C 57.307632 1024 0 966.692383 0 896 L 0 811 L 1 811 L 2 812 L 3 812 L 4 813 L 5 813 L 6 814 L 7 816 L 8 817 L 9 818 L 10 818 L 11 818 L 12 818 L 13 818 L 14 818 L 15 817 L 16 817 L 17 817 L 18 817 L 19 817 L 20 817 L 21 817 L 22 817 L 23 816 L 24 815 L 25 814 L 26 813 L 27 812 L 28 811 L 29 810 L 30 808 L 31 807 L 32 806 L 33 806 L 34 806 L 35 805 L 36 804 L 37 803 L 38 803 L 39 802 L 40 802 L 41 802 L 42 801 L 43 801 L 44 800 L 45 800 L 46 799 L 47 798 L 48 797 L 49 796 L 50 795 L 51 795 L 52 794 L 53 795 L 54 795 L 55 795 L 56 794 L 57 794 L 58 793 L 59 793 L 60 793 L 61 793 L 62 793 L 63 792 L 64 791 L 65 791 L 66 791 L 67 791 L 68 791 L 69 790 L 70 790 L 71 791 L 72 791 L 73 792 L 74 793 L 75 793 L 76 794 L 77 793 L 78 793 L 79 793 L 80 792 L 81 792 L 82 792 L 83 792 L 84 793 L 85 794 L 86 795 L 87 797 L 88 798 L 89 798 L 90 798 L 91 799 L 92 800 L 93 802 L 94 803 L 95 805 L 96 806 L 97 806 L 98 806 L 99 806 L 100 806 L 101 806 L 102 806 L 103 806 L 104 806 L 105 807 L 106 807 L 107 807 L 108 807 L 109 807 L 110 808 L 111 808 L 112 809 L 113 809 L 114 809 L 115 808 L 116 808 L 117 809 L 118 809 L 119 809 L 120 808 L 121 807 L 122 806 L 123 805 L 124 805 L 125 805 L 126 806 L 127 808 L 128 809 L 129 810 L 130 810 L 131 809 L 132 808 L 133 807 L 134 806 L 135 806 L 136 807 L 137 808 L 138 808 L 139 809 L 140 810 L 141 810 L 142 810 L 143 811 L 144 811 L 145 811 L 146 811 L 147 810 L 148 809 L 149 807 L 150 805 L 151 804 L 152 802 L 153 801 L 154 801 L 155 800 L 156 800 L 157 799 L 158 798 L 159 797 L 160 796 L 161 796 L 162 795 L 163 795 L 164 795 L 165 795 L 166 795 L 167 795 L 168 794 L 169 793 L 170 792 L 171 790 L 172 789 L 173 788 L 174 787 L 175 786 L 176 785 L 177 783 L 178 780 L 179 778 L 180 776 L 181 774 L 182 773 L 183 773 L 184 772 L 185 771 L 186 770 L 187 769 L 188 769 L 189 769 L 190 769 L 191 769 L 192 770 L 193 769 L 194 769 L 195 770 L 196 771 L 197 772 L 198 773 L 199 774 L 200 774 L 201 773 L 202 773 L 203 772 L 204 772 L 205 771 L 206 771 L 207 771 L 208 770 L 209 769 L 210 768 L 211 768 L 212 768 L 213 768 L 214 767 L 215 766 L 216 765 L 217 764 L 218 763 L 219 762 L 220 761 L 221 760 L 222 759 L 223 759 L 224 759 L 225 759 L 226 759 L 227 758 L 228 756 L 229 755 L 230 755 L 231 755 L 232 755 L 233 755 L 234 755 L 235 755 L 236 756 L 237 756 L 238 756 L 239 756 L 240 756 L 241 755 L 242 755 L 243 755 L 244 755 L 245 755 L 246 755 L 247 755 L 248 755 L 249 756 L 250 757 L 251 758 L 252 758 L 253 758 L 254 758 L 255 759 L 256 759 L 257 758 L 258 757 L 259 755 L 260 754 L 261 754 L 262 754 L 263 754 L 264 754 L 265 754 L 266 754 L 267 754 L 268 755 L 269 755 L 270 755 L 271 755 L 272 754 L 273 753 L 274 753 L 275 752 L 276 752 L 277 752 L 278 751 L 279 749 L 280 747 L 281 744 L 282 742 L 283 740 L 284 738 L 285 736 L 286 734 L 287 732 L 288 730 L 289 729 L 290 728 L 291 728 L 292 728 L 293 727 L 294 726 L 295 725 L 296 724 L 297 723 L 298 722 L 299 721 L 300 720 L 301 719 L 302 718 L 303 718 L 304 717 L 305 717 L 306 716 L 307 714 L 308 713 L 309 711 L 310 710 L 311 710 L 312 710 L 313 709 L 314 708 L 315 708 L 316 708 L 317 709 L 318 710 L 319 711 L 320 711 L 321 711 L 322 710 L 323 710 L 324 710 L 325 711 L 326 712 L 327 712 L 328 713 L 329 714 L 330 715 L 331 715 L 332 716 L 333 716 L 334 717 L 335 716 L 336 716 L 337 715 L 338 714 L 339 713 L 340 712 L 341 711 L 342 711 L 343 710 L 344 709 L 345 709 L 346 708 L 347 707 L 348 706 L 349 705 L 350 704 L 351 704 L 352 703 L 353 703 L 354 703 L 355 703 L 356 703 L 357 704 L 358 705 L 359 706 L 360 706 L 361 707 L 362 707 L 363 708 L 364 708 L 365 708 L 366 709 L 367 709 L 368 710 L 369 711 L 370 711 L 371 712 L 372 713 L 373 714 L 374 714 L 375 716 L 376 718 L 377 720 L 378 723 L 379 725 L 380 727 L 381 729 L 382 729 L 383 730 L 384 731 L 385 731 L 386 732 L 387 733 L 388 734 L 389 735 L 390 736 L 391 737 L 392 739 L 393 740 L 394 741 L 395 743 L 396 744 L 397 745 L 398 747 L 399 748 L 400 749 L 401 750 L 402 751 L 403 751 L 404 751 L 405 751 L 406 752 L 407 753 L 408 755 L 409 757 L 410 758 L 411 759 L 412 760 L 413 760 L 414 759 L 415 758 L 416 758 L 417 757 L 418 756 L 419 755 L 420 754 L 421 753 L 422 752 L 423 752 L 424 751 L 425 751 L 426 751 L 427 751 L 428 751 L 429 753 L 430 754 L 431 756 L 432 757 L 433 758 L 434 759 L 435 760 L 436 761 L 437 761 L 438 761 L 439 760 L 440 759 L 441 757 L 442 755 L 443 753 L 444 752 L 445 752 L 446 752 L 447 752 L 448 751 L 449 751 L 450 750 L 451 749 L 452 748 L 453 747 L 454 746 L 455 746 L 456 746 L 457 746 L 458 747 L 459 747 L 460 747 L 461 748 L 462 748 L 463 749 L 464 750 L 465 750 L 466 750 L 467 749 L 468 748 L 469 747 L 470 746 L 471 746 L 472 746 L 473 746 L 474 747 L 475 747 L 476 747 L 477 747 L 478 746 L 479 745 L 480 743 L 481 742 L 482 740 L 483 740 L 484 739 L 485 739 L 486 738 L 487 737 L 488 736 L 489 736 L 490 736 L 491 737 L 492 736 L 493 736 L 494 736 L 495 736 L 496 736 L 497 736 L 498 735 L 499 735 L 500 735 L 501 734 L 502 734 L 503 734 L 504 734 L 505 734 L 506 734 L 507 734 L 508 734 L 509 733 L 510 733 L 511 734 L 512 734 L 513 735 L 514 735 L 515 734 L 516 733 L 517 733 L 518 732 L 519 732 L 520 733 L 521 733 L 522 732 L 523 733 L 524 733 L 525 734 L 526 734 L 527 734 L 528 735 L 529 736 L 530 737 L 531 738 L 532 739 L 533 739 L 534 740 L 535 741 L 536 743 L 537 744 L 538 745 L 539 746 L 540 747 L 541 749 L 542 752 L 543 754 L 544 757 L 545 759 L 546 760 L 547 760 L 548 760 L 549 760 L 550 760 L 551 761 L 552 762 L 553 764 L 554 766 L 555 768 L 556 770 L 557 772 L 558 773 L 559 774 L 560 774 L 561 775 L 562 776 L 563 777 L 564 777 L 565 776 L 566 775 L 567 775 L 568 775 L 569 776 L 570 777 L 571 778 L 572 779 L 573 779 L 574 779 L 575 779 L 576 780 L 577 780 L 578 782 L 579 784 L 580 786 L 581 788 L 582 790 L 583 791 L 584 791 L 585 790 L 586 789 L 587 789 L 588 789 L 589 788 L 590 789 L 591 789 L 592 789 L 593 789 L 594 790 L 595 790 L 596 791 L 597 791 L 598 791 L 599 791 L 600 790 L 601 791 L 602 791 L 603 792 L 604 792 L 605 792 L 606 792 L 607 792 L 608 792 L 609 792 L 610 792 L 611 791 L 612 791 L 613 790 L 614 789 L 615 788 L 616 787 L 617 787 L 618 787 L 619 787 L 620 788 L 621 788 L 622 788 L 623 787 L 624 787 L 625 788 L 626 788 L 627 788 L 628 788 L 629 787 L 630 787 L 631 787 L 632 787 L 633 787 L 634 786 L 635 786 L 636 786 L 637 787 L 638 787 L 639 787 L 640 788 L 641 790 L 642 792 L 643 794 L 644 797 L 645 799 L 646 803 L 647 805 L 648 808 L 649 809 L 650 810 L 651 811 L 652 812 L 653 812 L 654 811 L 655 811 L 656 810 L 657 808 L 658 808 L 659 807 L 660 807 L 661 807 L 662 808 L 663 808 L 664 808 L 665 808 L 666 808 L 667 808 L 668 808 L 669 808 L 670 809 L 671 810 L 672 810 L 673 810 L 674 810 L 675 811 L 676 812 L 677 813 L 678 814 L 679 814 L 680 815 L 681 815 L 682 816 L 683 817 L 684 818 L 685 818 L 686 819 L 687 819 L 688 819 L 689 820 L 690 820 L 691 821 L 692 821 L 693 822 L 694 824 L 695 825 L 696 827 L 697 828 L 698 829 L 699 831 L 700 832 L 701 834 L 702 836 L 703 837 L 704 839 L 705 840 L 706 841 L 707 843 L 708 846 L 709 848 L 710 850 L 711 851 L 712 852 L 713 851 L 714 851 L 715 850 L 716 850 L 717 850 L 718 851 L 719 852 L 720 853 L 721 854 L 722 854 L 723 853 L 724 853 L 725 852 L 726 852 L 727 851 L 728 851 L 729 852 L 730 852 L 731 853 L 732 854 L 733 855 L 734 855 L 735 856 L 736 856 L 737 857 L 738 857 L 739 858 L 740 859 L 741 860 L 742 861 L 743 862 L 744 863 L 745 863 L 746 864 L 747 865 L 748 866 L 749 867 L 750 869 L 751 870 L 752 871 L 753 872 L 754 873 L 755 874 L 756 875 L 757 877 L 758 878 L 759 879 L 760 880 L 761 880 L 762 881 L 763 882 L 764 883 L 765 884 L 766 885 L 767 886 L 768 887 L 769 888 L 770 889 L 771 889 L 772 890 L 773 891 L 774 891 L 775 891 L 776 891 L 777 892 L 778 892 L 779 893 L 780 894 L 781 894 L 782 894 L 783 893 L 784 893 L 785 893 L 786 893 L 787 894 L 788 894 L 789 895 L 790 896 L 791 897 L 792 897 L 793 897 L 794 897 L 795 898 L 796 899 L 797 900 L 798 902 L 799 903 L 800 904 L 801 905 L 802 906 L 803 907 L 804 908 L 805 909 L 806 909 L 807 910 L 808 910 L 809 911 L 810 911 L 811 912 L 812 912 L 813 912 L 814 912 L 815 911 L 816 911 L 817 910 L 818 910 L 819 910 L 820 911 L 821 912 L 822 912 L 823 912 L 824 912 L 825 912 L 826 912 L 827 913 L 828 913 L 829 913 L 830 913 L 831 914 L 832 914 L 833 914 L 834 914 L 835 914 L 836 914 L 837 914 L 838 913 L 839 911 L 840 910 L 841 909 L 842 909 L 843 908 L 844 908 L 845 906 L 846 904 L 847 902 L 848 901 L 849 900 L 850 898 L 851 897 L 852 896 L 853 895 L 854 894 L 855 893 L 856 892 L 857 891 L 858 891 L 859 891 L 860 891 L 861 891 L 862 891 L 863 889 L 864 888 L 865 886 L 866 885 L 867 884 L 868 883 L 869 882 L 870 880 L 871 879 L 872 877 L 873 876 L 874 874 L 875 873 L 876 872 L 877 872 L 878 871 L 879 869 L 880 868 L 881 867 L 882 865 L 883 864 L 884 863 L 885 862 L 886 861 L 887 861 L 888 862 L 889 861 L 890 861 L 891 861 L 892 861 L 893 861 L 894 862 L 895 862 L 896 863 L 897 863 L 898 862 L 899 862 L 900 862 L 901 862 L 902 862 L 903 862 L 904 861 L 905 861 L 906 860 L 907 860 L 908 860 L 909 860 L 910 860 L 911 861 L 912 861 L 913 862 L 914 862 L 915 861 L 916 860 L 917 859 L 918 857 L 919 856 L 920 856 L 921 856 L 922 856 L 923 857 L 924 856 L 925 856 L 926 855 L 927 855 L 928 854 L 929 855 L 930 855 L 931 857 L 932 859 L 933 861 L 934 862 L 935 864 L 936 864 L 937 863 L 938 863 L 939 862 L 940 862 L 941 861 L 942 859 L 943 858 L 944 856 L 945 855 L 946 855 L 947 855 L 948 856 L 949 857 L 950 859 L 951 861 L 952 862 L 953 863 L 954 864 L 955 865 L 956 867 L 957 868 L 958 869 L 959 869 L 960 869 L 961 869 L 962 869 L 963 870 L 964 870 L 965 871 L 966 871 L 967 872 L 968 873 L 969 874 L 970 875 L 971 876 L 972 877 L 973 878 L 974 879 L 975 880 L 976 881 L 977 882 L 978 883 L 979 884 L 980 886 L 981 888 L 982 890 L 983 891 L 984 892 L 985 892 L 986 892 L 987 893 L 988 894 L 989 895 L 990 895 L 991 895 L 992 895 L 993 895 L 994 895 L 995 895 L 996 896 L 997 896 L 998 897 L 999 897 L 1000 899 L 1001 900 L 1002 902 L 1003 903 L 1004 905 L 1005 906 L 1006 907 L 1007 908 L 1008 909 L 1009 911 L 1010 912 L 1011 914 L 1012 915 L 1013 917 L 1014 919 L 1015 920 L 1016 920 L 1017 920 L 1018 920 L 1019 920 L 1020 919 L 1021 919 L 1021.9375 919 C 1011.102661 978.715576 958.840332 1024 896 1024 L 128 1024 Z"/>
    <linearGradient id="linearGradient5" x1="12.871094" y1="918" x2="12.871094" y2="1024" gradientUnits="userSpaceOnUse">
        <stop offset="1e-05" stop-color="#153b59" stop-opacity="1"/>
        <stop offset="1" stop-color="#001f37" stop-opacity="1"/>
    </linearGradient>
    <path id="mountain4" fill="url(#linearGradient5)" stroke="none" d="M 128 1024 C 77.390549 1024 33.643982 994.627197 12.871094 952 L 13 952 L 14 951 L 15 951 L 16 950 L 17 950 L 18 949 L 19 949 L 20 949 L 21 949 L 22 948 L 23 948 L 24 948 L 25 947 L 26 947 L 27 946 L 28 946 L 29 946 L 30 946 L 31 946 L 32 946 L 33 946 L 34 947 L 35 947 L 36 947 L 37 948 L 38 948 L 39 948 L 40 948 L 41 949 L 42 949 L 43 949 L 44 949 L 45 949 L 46 949 L 47 949 L 48 949 L 49 949 L 50 950 L 51 950 L 52 950 L 53 950 L 54 950 L 55 950 L 56 950 L 57 950 L 58 950 L 59 950 L 60 950 L 61 949 L 62 949 L 63 949 L 64 949 L 65 949 L 66 948 L 67 948 L 68 948 L 69 948 L 70 948 L 71 948 L 72 948 L 73 948 L 74 948 L 75 949 L 76 949 L 77 949 L 78 949 L 79 949 L 80 949 L 81 949 L 82 948 L 83 948 L 84 948 L 85 947 L 86 947 L 87 946 L 88 946 L 89 946 L 90 946 L 91 946 L 92 947 L 93 947 L 94 947 L 95 947 L 96 947 L 97 947 L 98 948 L 99 948 L 100 948 L 101 948 L 102 948 L 103 949 L 104 949 L 105 949 L 106 949 L 107 949 L 108 949 L 109 950 L 110 950 L 111 949 L 112 949 L 113 949 L 114 949 L 115 949 L 116 949 L 117 948 L 118 948 L 119 949 L 120 949 L 121 949 L 122 949 L 123 949 L 124 948 L 125 948 L 126 948 L 127 948 L 128 948 L 129 949 L 130 949 L 131 949 L 132 948 L 133 948 L 134 948 L 135 948 L 136 947 L 137 947 L 138 947 L 139 947 L 140 946 L 141 946 L 142 946 L 143 946 L 144 946 L 145 946 L 146 947 L 147 947 L 148 947 L 149 947 L 150 948 L 151 948 L 152 949 L 153 949 L 154 949 L 155 949 L 156 949 L 157 949 L 158 948 L 159 948 L 160 948 L 161 948 L 162 948 L 163 948 L 164 948 L 165 948 L 166 947 L 167 947 L 168 947 L 169 947 L 170 947 L 171 947 L 172 948 L 173 948 L 174 948 L 175 949 L 176 949 L 177 949 L 178 949 L 179 949 L 180 949 L 181 949 L 182 949 L 183 949 L 184 949 L 185 949 L 186 949 L 187 949 L 188 949 L 189 949 L 190 950 L 191 950 L 192 949 L 193 949 L 194 949 L 195 949 L 196 949 L 197 948 L 198 948 L 199 947 L 200 947 L 201 946 L 202 946 L 203 946 L 204 946 L 205 946 L 206 946 L 207 946 L 208 946 L 209 946 L 210 946 L 211 946 L 212 946 L 213 946 L 214 947 L 215 947 L 216 947 L 217 947 L 218 946 L 219 946 L 220 945 L 221 945 L 222 945 L 223 945 L 224 945 L 225 945 L 226 945 L 227 945 L 228 945 L 229 945 L 230 945 L 231 945 L 232 945 L 233 945 L 234 945 L 235 945 L 236 945 L 237 945 L 238 944 L 239 944 L 240 944 L 241 943 L 242 943 L 243 942 L 244 942 L 245 942 L 246 942 L 247 942 L 248 942 L 249 942 L 250 942 L 251 942 L 252 942 L 253 942 L 254 942 L 255 942 L 256 942 L 257 942 L 258 942 L 259 943 L 260 943 L 261 943 L 262 944 L 263 944 L 264 944 L 265 945 L 266 945 L 267 945 L 268 946 L 269 946 L 270 947 L 271 947 L 272 947 L 273 948 L 274 948 L 275 948 L 276 949 L 277 949 L 278 949 L 279 949 L 280 949 L 281 949 L 282 948 L 283 948 L 284 948 L 285 948 L 286 948 L 287 948 L 288 948 L 289 948 L 290 948 L 291 948 L 292 948 L 293 948 L 294 948 L 295 948 L 296 948 L 297 948 L 298 948 L 299 948 L 300 948 L 301 948 L 302 948 L 303 948 L 304 948 L 305 948 L 306 948 L 307 948 L 308 948 L 309 948 L 310 948 L 311 948 L 312 948 L 313 948 L 314 948 L 315 948 L 316 947 L 317 947 L 318 947 L 319 946 L 320 946 L 321 946 L 322 945 L 323 945 L 324 945 L 325 944 L 326 944 L 327 944 L 328 943 L 329 943 L 330 942 L 331 942 L 332 942 L 333 942 L 334 941 L 335 941 L 336 940 L 337 940 L 338 939 L 339 939 L 340 939 L 341 938 L 342 938 L 343 938 L 344 938 L 345 938 L 346 938 L 347 938 L 348 937 L 349 937 L 350 937 L 351 937 L 352 937 L 353 937 L 354 937 L 355 936 L 356 936 L 357 935 L 358 935 L 359 935 L 360 934 L 361 934 L 362 934 L 363 934 L 364 934 L 365 934 L 366 934 L 367 934 L 368 934 L 369 934 L 370 934 L 371 934 L 372 933 L 373 933 L 374 933 L 375 933 L 376 933 L 377 932 L 378 932 L 379 932 L 380 932 L 381 932 L 382 933 L 383 933 L 384 933 L 385 932 L 386 932 L 387 932 L 388 931 L 389 931 L 390 930 L 391 930 L 392 930 L 393 929 L 394 929 L 395 928 L 396 928 L 397 928 L 398 927 L 399 927 L 400 927 L 401 927 L 402 927 L 403 927 L 404 927 L 405 927 L 406 928 L 407 928 L 408 928 L 409 928 L 410 928 L 411 928 L 412 928 L 413 928 L 414 928 L 415 927 L 416 927 L 417 927 L 418 927 L 419 927 L 420 927 L 421 926 L 422 926 L 423 926 L 424 926 L 425 926 L 426 926 L 427 926 L 428 927 L 429 927 L 430 927 L 431 928 L 432 928 L 433 928 L 434 927 L 435 927 L 436 926 L 437 926 L 438 926 L 439 925 L 440 925 L 441 925 L 442 925 L 443 925 L 444 925 L 445 925 L 446 925 L 447 925 L 448 925 L 449 925 L 450 925 L 451 925 L 452 925 L 453 925 L 454 925 L 455 925 L 456 925 L 457 925 L 458 925 L 459 925 L 460 925 L 461 926 L 462 926 L 463 926 L 464 927 L 465 927 L 466 927 L 467 927 L 468 927 L 469 928 L 470 928 L 471 928 L 472 928 L 473 929 L 474 929 L 475 929 L 476 929 L 477 929 L 478 929 L 479 929 L 480 929 L 481 929 L 482 929 L 483 929 L 484 929 L 485 929 L 486 929 L 487 929 L 488 929 L 489 929 L 490 928 L 491 928 L 492 928 L 493 928 L 494 928 L 495 928 L 496 928 L 497 928 L 498 928 L 499 929 L 500 929 L 501 930 L 502 931 L 503 931 L 504 932 L 505 932 L 506 933 L 507 933 L 508 933 L 509 933 L 510 933 L 511 934 L 512 934 L 513 934 L 514 935 L 515 935 L 516 936 L 517 936 L 518 936 L 519 936 L 520 936 L 521 936 L 522 936 L 523 937 L 524 938 L 525 938 L 526 939 L 527 939 L 528 940 L 529 941 L 530 941 L 531 942 L 532 942 L 533 943 L 534 943 L 535 944 L 536 944 L 537 944 L 538 944 L 539 944 L 540 944 L 541 945 L 542 945 L 543 945 L 544 945 L 545 945 L 546 945 L 547 945 L 548 945 L 549 945 L 550 945 L 551 945 L 552 945 L 553 945 L 554 945 L 555 945 L 556 945 L 557 945 L 558 945 L 559 945 L 560 945 L 561 946 L 562 946 L 563 946 L 564 946 L 565 947 L 566 947 L 567 947 L 568 947 L 569 947 L 570 947 L 571 947 L 572 947 L 573 947 L 574 947 L 575 947 L 576 947 L 577 947 L 578 948 L 579 948 L 580 949 L 581 949 L 582 949 L 583 949 L 584 949 L 585 949 L 586 949 L 587 950 L 588 950 L 589 950 L 590 950 L 591 950 L 592 950 L 593 950 L 594 950 L 595 950 L 596 950 L 597 950 L 598 950 L 599 950 L 600 950 L 601 950 L 602 951 L 603 951 L 604 951 L 605 951 L 606 951 L 607 951 L 608 950 L 609 950 L 610 950 L 611 949 L 612 949 L 613 949 L 614 948 L 615 948 L 616 948 L 617 948 L 618 947 L 619 947 L 620 948 L 621 948 L 622 948 L 623 948 L 624 949 L 625 949 L 626 950 L 627 950 L 628 950 L 629 951 L 630 951 L 631 952 L 632 953 L 633 953 L 634 953 L 635 954 L 636 954 L 637 954 L 638 954 L 639 953 L 640 953 L 641 953 L 642 953 L 643 953 L 644 953 L 645 952 L 646 952 L 647 951 L 648 951 L 649 951 L 650 951 L 651 951 L 652 951 L 653 951 L 654 951 L 655 952 L 656 952 L 657 952 L 658 952 L 659 953 L 660 953 L 661 954 L 662 954 L 663 955 L 664 955 L 665 955 L 666 955 L 667 955 L 668 955 L 669 955 L 670 955 L 671 955 L 672 956 L 673 956 L 674 956 L 675 957 L 676 957 L 677 957 L 678 957 L 679 957 L 680 957 L 681 957 L 682 957 L 683 958 L 684 958 L 685 958 L 686 958 L 687 958 L 688 957 L 689 957 L 690 957 L 691 956 L 692 956 L 693 956 L 694 955 L 695 954 L 696 954 L 697 953 L 698 953 L 699 952 L 700 952 L 701 951 L 702 951 L 703 951 L 704 950 L 705 950 L 706 950 L 707 950 L 708 949 L 709 949 L 710 949 L 711 949 L 712 949 L 713 949 L 714 949 L 715 949 L 716 949 L 717 949 L 718 948 L 719 948 L 720 948 L 721 947 L 722 947 L 723 946 L 724 946 L 725 946 L 726 946 L 727 946 L 728 945 L 729 945 L 730 945 L 731 945 L 732 945 L 733 945 L 734 945 L 735 946 L 736 946 L 737 946 L 738 945 L 739 945 L 740 945 L 741 945 L 742 945 L 743 945 L 744 945 L 745 945 L 746 945 L 747 945 L 748 946 L 749 946 L 750 946 L 751 946 L 752 946 L 753 945 L 754 945 L 755 945 L 756 944 L 757 944 L 758 943 L 759 943 L 760 942 L 761 942 L 762 941 L 763 941 L 764 941 L 765 940 L 766 940 L 767 940 L 768 939 L 769 939 L 770 939 L 771 939 L 772 939 L 773 939 L 774 938 L 775 938 L 776 938 L 777 937 L 778 936 L 779 935 L 780 935 L 781 934 L 782 933 L 783 933 L 784 932 L 785 931 L 786 931 L 787 930 L 788 929 L 789 929 L 790 928 L 791 928 L 792 928 L 793 928 L 794 927 L 795 927 L 796 927 L 797 927 L 798 926 L 799 926 L 800 926 L 801 926 L 802 926 L 803 926 L 804 925 L 805 925 L 806 924 L 807 924 L 808 924 L 809 924 L 810 924 L 811 924 L 812 924 L 813 924 L 814 924 L 815 924 L 816 924 L 817 924 L 818 925 L 819 925 L 820 925 L 821 925 L 822 925 L 823 925 L 824 925 L 825 925 L 826 925 L 827 925 L 828 925 L 829 926 L 830 926 L 831 926 L 832 926 L 833 927 L 834 927 L 835 927 L 836 927 L 837 928 L 838 928 L 839 928 L 840 929 L 841 929 L 842 930 L 843 931 L 844 931 L 845 932 L 846 932 L 847 932 L 848 932 L 849 932 L 850 932 L 851 931 L 852 931 L 853 931 L 854 930 L 855 930 L 856 930 L 857 930 L 858 930 L 859 930 L 860 930 L 861 930 L 862 929 L 863 929 L 864 929 L 865 929 L 866 929 L 867 930 L 868 930 L 869 930 L 870 929 L 871 929 L 872 929 L 873 929 L 874 929 L 875 928 L 876 928 L 877 928 L 878 928 L 879 928 L 880 928 L 881 928 L 882 928 L 883 928 L 884 928 L 885 928 L 886 928 L 887 928 L 888 928 L 889 928 L 890 927 L 891 927 L 892 927 L 893 927 L 894 926 L 895 926 L 896 925 L 897 925 L 898 925 L 899 925 L 900 924 L 901 924 L 902 924 L 903 924 L 904 923 L 905 923 L 906 922 L 907 922 L 908 922 L 909 922 L 910 922 L 911 922 L 912 921 L 913 921 L 914 921 L 915 921 L 916 921 L 917 921 L 918 922 L 919 922 L 920 922 L 921 922 L 922 922 L 923 922 L 924 922 L 925 921 L 926 921 L 927 921 L 928 920 L 929 920 L 930 920 L 931 920 L 932 919 L 933 919 L 934 919 L 935 918 L 936 918 L 937 918 L 938 918 L 939 918 L 940 918 L 941 918 L 942 919 L 943 919 L 944 919 L 945 919 L 946 919 L 947 919 L 948 919 L 949 919 L 950 919 L 951 919 L 952 919 L 953 920 L 954 920 L 955 920 L 956 920 L 957 920 L 958 920 L 959 920 L 960 921 L 961 921 L 962 921 L 963 921 L 964 921 L 965 921 L 966 920 L 967 920 L 968 920 L 969 920 L 970 920 L 971 920 L 972 920 L 973 921 L 974 921 L 975 921 L 976 921 L 977 921 L 978 921 L 979 921 L 980 921 L 981 921 L 982 921 L 983 922 L 984 921 L 985 921 L 986 921 L 987 921 L 988 921 L 989 921 L 990 922 L 991 922 L 992 922 L 993 922 L 994 923 L 995 923 L 996 924 L 997 924 L 998 925 L 999 925 L 1000 926 L 1001 926 L 1002 926 L 1003 926 L 1004 926 L 1005 926 L 1006 926 L 1007 926 L 1008 926 L 1009 926 L 1010 926 L 1011 926 L 1012 927 L 1013 927 L 1014 927 L 1015 927 L 1016 926 L 1017 926 L 1018 926 L 1019 926 L 1020 926 L 1020.462891 926 C 1006.960693 982.218445 956.360229 1024 896 1024 L 128 1024 Z"/>
</svg>
