<?xml version="1.0" encoding="UTF-8"?>
<svg width="876" height="266" viewBox="0 0 876 266" xmlns="http://www.w3.org/2000/svg">
	<path fill="canvastext" fill-rule="evenodd" stroke="none" d="M 872.542969 241.804688 L 875.835938 246.210938 L 874.03125 246.210938 L 870.222656 241.804688 Z M 863.578125 242.871094 L 863.578125 250.042969 L 860.953125 250.042969 L 860.953125 242.871094 Z M 857.332031 242.871094 L 857.332031 250.042969 L 854.707031 250.042969 L 854.707031 242.871094 Z M 849.128906 242.871094 L 849.128906 250.042969 L 846.503906 250.042969 L 846.503906 242.871094 Z M 842.882813 242.871094 L 842.882813 250.042969 L 840.257813 250.042969 L 840.257813 242.871094 Z M 834.679688 242.871094 L 834.679688 250.042969 L 832.054688 250.042969 L 832.054688 242.871094 Z M 828.433594 242.871094 L 828.433594 250.042969 L 825.808594 250.042969 L 825.808594 242.871094 Z M 820.230469 242.871094 L 820.230469 250.042969 L 817.605469 250.042969 L 817.605469 242.871094 Z M 813.984375 242.871094 L 813.984375 250.042969 L 811.359375 250.042969 L 811.359375 242.871094 Z M 805.78125 242.871094 L 805.78125 250.042969 L 803.15625 250.042969 L 803.15625 242.871094 Z M 799.535156 242.871094 L 799.535156 250.042969 L 796.910156 250.042969 L 796.910156 242.871094 Z M 792.996094 251.8125 L 794.519531 252.84375 C 793.847656 254.375 793.1875 255.419922 792.539063 255.978516 C 791.890625 256.537109 791.222656 256.816406 790.535156 256.816406 C 789.441406 256.753906 788.455078 256.185547 787.576172 255.111328 C 786.697266 254.037109 786.078125 253.275391 785.71875 252.826172 C 785.359375 252.376953 784.894531 252.15625 784.324219 252.164063 C 783.722656 252.164063 783.265625 252.447266 782.953125 253.013672 C 782.640625 253.580078 782.3125 254.300781 781.96875 255.175781 L 780.410156 254.285156 C 780.863281 252.839844 781.449219 251.773438 782.167969 251.085938 C 782.886719 250.398438 783.609375 250.054688 784.335938 250.054688 C 785.65625 250.039063 786.837891 250.820313 787.880859 252.398438 C 788.923828 253.976563 789.808594 254.765625 790.535156 254.765625 C 791.152344 254.765625 791.65625 254.427734 792.046875 253.751953 C 792.4375 253.076172 792.753906 252.429688 792.996094 251.8125 Z M 778.546875 251.8125 L 780.070313 252.84375 C 779.398438 254.375 778.738281 255.419922 778.089844 255.978516 C 777.441406 256.537109 776.773438 256.816406 776.085938 256.816406 C 774.992188 256.753906 774.005859 256.185547 773.126953 255.111328 C 772.248047 254.037109 771.628906 253.275391 771.269531 252.826172 C 770.910156 252.376953 770.445313 252.15625 769.875 252.164063 C 769.273438 252.164063 768.816406 252.447266 768.503906 253.013672 C 768.191406 253.580078 767.863281 254.300781 767.519531 255.175781 L 765.960938 254.285156 C 766.414063 252.839844 767 251.773438 767.71875 251.085938 C 768.4375 250.398438 769.160156 250.054688 769.886719 250.054688 C 771.207031 250.039063 772.388672 250.820313 773.431641 252.398438 C 774.474609 253.976563 775.359375 254.765625 776.085938 254.765625 C 776.703125 254.765625 777.207031 254.427734 777.597656 253.751953 C 777.988281 253.076172 778.304688 252.429688 778.546875 251.8125 Z M 762.433594 242.871094 L 762.433594 250.042969 L 759.808594 250.042969 L 759.808594 242.871094 Z M 756.1875 242.871094 L 756.1875 250.042969 L 753.5625 250.042969 L 753.5625 242.871094 Z M 747.984375 242.871094 L 747.984375 250.042969 L 745.359375 250.042969 L 745.359375 242.871094 Z M 741.738281 242.871094 L 741.738281 250.042969 L 739.113281 250.042969 L 739.113281 242.871094 Z M 723.65625 252.515625 L 736.078125 252.515625 L 736.078125 254.496094 L 723.65625 254.496094 Z M 720.75 251.8125 L 722.273438 252.84375 C 721.601563 254.375 720.941406 255.419922 720.292969 255.978516 C 719.644531 256.537109 718.976563 256.816406 718.289063 256.816406 C 717.195313 256.753906 716.208984 256.185547 715.330078 255.111328 C 714.451172 254.037109 713.832031 253.275391 713.472656 252.826172 C 713.113281 252.376953 712.648438 252.15625 712.078125 252.164063 C 711.476563 252.164063 711.019531 252.447266 710.707031 253.013672 C 710.394531 253.580078 710.066406 254.300781 709.722656 255.175781 L 708.164063 254.285156 C 708.617188 252.839844 709.203125 251.773438 709.921875 251.085938 C 710.640625 250.398438 711.363281 250.054688 712.089844 250.054688 C 713.410156 250.039063 714.591797 250.820313 715.634766 252.398438 C 716.677734 253.976563 717.5625 254.765625 718.289063 254.765625 C 718.90625 254.765625 719.410156 254.427734 719.800781 253.751953 C 720.191406 253.076172 720.507813 252.429688 720.75 251.8125 Z M 698.589844 247.886719 L 702.246094 247.886719 L 702.246094 252.117188 L 698.589844 252.117188 Z M 698.589844 256.734375 L 702.246094 256.734375 L 702.246094 261 L 698.589844 261 Z M 684.140625 247.886719 L 687.796875 247.886719 L 687.796875 252.117188 L 684.140625 252.117188 Z M 684.140625 256.734375 L 687.796875 256.734375 L 687.796875 261 L 684.140625 261 Z M 669.84375 256.769531 L 673.5 256.769531 L 673.5 259.875 L 671.191406 264.351563 L 668.683594 264.351563 L 669.84375 259.875 Z M 669.691406 247.886719 L 673.347656 247.886719 L 673.347656 252.117188 L 669.691406 252.117188 Z M 664.558594 263.226563 L 664.558594 265.21875 L 650.214844 265.21875 L 650.214844 263.226563 Z M 650.109375 263.226563 L 650.109375 265.21875 L 635.765625 265.21875 L 635.765625 263.226563 Z M 625.875 256.265625 L 630 256.265625 L 630 261 L 625.875 261 Z M 612.046875 256.769531 L 615.703125 256.769531 L 615.703125 259.875 L 613.101563 264.925781 L 610.757813 264.9375 L 612.046875 259.875 Z M 606.761719 263.226563 L 606.761719 265.21875 L 592.417969 265.21875 L 592.417969 263.226563 Z M 582.996094 247.886719 L 586.652344 247.886719 L 586.652344 252.117188 L 582.996094 252.117188 Z M 582.996094 256.734375 L 586.652344 256.734375 L 586.652344 261 L 582.996094 261 Z M 568.546875 247.886719 L 572.203125 247.886719 L 572.203125 252.117188 L 568.546875 252.117188 Z M 568.546875 256.734375 L 572.203125 256.734375 L 572.203125 261 L 568.546875 261 Z M 552.503906 243.503906 L 561.714844 263.226563 L 559.488281 263.226563 L 550.265625 243.503906 Z M 540.210938 241.804688 L 543.503906 246.210938 L 541.699219 246.210938 L 537.890625 241.804688 Z M 866.847656 235.226563 L 866.847656 237.21875 L 852.503906 237.21875 L 852.503906 235.226563 Z M 852.398438 235.226563 L 852.398438 237.21875 L 838.054688 237.21875 L 838.054688 235.226563 Z M 837.949219 235.226563 L 837.949219 237.21875 L 823.605469 237.21875 L 823.605469 235.226563 Z M 813.714844 228.265625 L 817.839844 228.265625 L 817.839844 233 L 813.714844 233 Z M 795.902344 224.515625 L 808.324219 224.515625 L 808.324219 226.496094 L 795.902344 226.496094 Z M 792.996094 223.8125 L 794.519531 224.84375 C 793.847656 226.375 793.1875 227.419922 792.539063 227.978516 C 791.890625 228.537109 791.222656 228.816406 790.535156 228.816406 C 789.441406 228.753906 788.455078 228.185547 787.576172 227.111328 C 786.697266 226.037109 786.078125 225.275391 785.71875 224.826172 C 785.359375 224.376953 784.894531 224.15625 784.324219 224.164063 C 783.722656 224.164063 783.265625 224.447266 782.953125 225.013672 C 782.640625 225.580078 782.3125 226.300781 781.96875 227.175781 L 780.410156 226.285156 C 780.863281 224.839844 781.449219 223.773438 782.167969 223.085938 C 782.886719 222.398438 783.609375 222.054688 784.335938 222.054688 C 785.65625 222.039063 786.837891 222.820313 787.880859 224.398438 C 788.923828 225.976563 789.808594 226.765625 790.535156 226.765625 C 791.152344 226.765625 791.65625 226.427734 792.046875 225.751953 C 792.4375 225.076172 792.753906 224.429688 792.996094 223.8125 Z M 778.546875 223.8125 L 780.070313 224.84375 C 779.398438 226.375 778.738281 227.419922 778.089844 227.978516 C 777.441406 228.537109 776.773438 228.816406 776.085938 228.816406 C 774.992188 228.753906 774.005859 228.185547 773.126953 227.111328 C 772.248047 226.037109 771.628906 225.275391 771.269531 224.826172 C 770.910156 224.376953 770.445313 224.15625 769.875 224.164063 C 769.273438 224.164063 768.816406 224.447266 768.503906 225.013672 C 768.191406 225.580078 767.863281 226.300781 767.519531 227.175781 L 765.960938 226.285156 C 766.414063 224.839844 767 223.773438 767.71875 223.085938 C 768.4375 222.398438 769.160156 222.054688 769.886719 222.054688 C 771.207031 222.039063 772.388672 222.820313 773.431641 224.398438 C 774.474609 225.976563 775.359375 226.765625 776.085938 226.765625 C 776.703125 226.765625 777.207031 226.427734 777.597656 225.751953 C 777.988281 225.076172 778.304688 224.429688 778.546875 223.8125 Z M 756.949219 213.804688 L 760.242188 218.210938 L 758.4375 218.210938 L 754.628906 213.804688 Z M 741.9375 219.886719 L 745.59375 219.886719 L 745.59375 224.117188 L 741.9375 224.117188 Z M 741.9375 228.734375 L 745.59375 228.734375 L 745.59375 233 L 741.9375 233 Z M 733.535156 214.871094 L 733.535156 222.042969 L 730.910156 222.042969 L 730.910156 214.871094 Z M 727.289063 214.871094 L 727.289063 222.042969 L 724.664063 222.042969 L 724.664063 214.871094 Z M 684.292969 228.769531 L 687.949219 228.769531 L 687.949219 231.875 L 685.347656 236.925781 L 683.003906 236.9375 L 684.292969 231.875 Z M 669.84375 228.769531 L 673.5 228.769531 L 673.5 231.875 L 671.191406 236.351563 L 668.683594 236.351563 L 669.84375 231.875 Z M 669.691406 219.886719 L 673.347656 219.886719 L 673.347656 224.117188 L 669.691406 224.117188 Z M 655.242188 219.886719 L 658.898438 219.886719 L 658.898438 224.117188 L 655.242188 224.117188 Z M 655.242188 228.734375 L 658.898438 228.734375 L 658.898438 233 L 655.242188 233 Z M 641.355469 213.804688 L 644.648438 218.210938 L 642.84375 218.210938 L 639.035156 213.804688 Z M 583.148438 228.769531 L 586.804688 228.769531 L 586.804688 231.875 L 584.203125 236.925781 L 581.859375 236.9375 L 583.148438 231.875 Z M 568.699219 228.769531 L 572.355469 228.769531 L 572.355469 231.875 L 570.046875 236.351563 L 567.539063 236.351563 L 568.699219 231.875 Z M 568.546875 219.886719 L 572.203125 219.886719 L 572.203125 224.117188 L 568.546875 224.117188 Z M 554.25 228.769531 L 557.90625 228.769531 L 557.90625 231.875 L 555.597656 236.351563 L 553.089844 236.351563 L 554.25 231.875 Z M 554.097656 219.886719 L 557.753906 219.886719 L 557.753906 224.117188 L 554.097656 224.117188 Z M 539.179688 228.265625 L 543.304688 228.265625 L 543.304688 233 L 539.179688 233 Z M 534.515625 235.226563 L 534.515625 237.21875 L 520.171875 237.21875 L 520.171875 235.226563 Z M 510.28125 228.265625 L 514.40625 228.265625 L 514.40625 233 L 510.28125 233 Z M 496.300781 219.886719 L 499.957031 219.886719 L 499.957031 224.117188 L 496.300781 224.117188 Z M 496.300781 228.734375 L 499.957031 228.734375 L 499.957031 233 L 496.300781 233 Z M 481.851563 219.886719 L 485.507813 219.886719 L 485.507813 224.117188 L 481.851563 224.117188 Z M 481.851563 228.734375 L 485.507813 228.734375 L 485.507813 233 L 481.851563 233 Z M 467.402344 219.886719 L 471.058594 219.886719 L 471.058594 224.117188 L 467.402344 224.117188 Z M 467.402344 228.734375 L 471.058594 228.734375 L 471.058594 233 L 467.402344 233 Z M 452.953125 219.886719 L 456.609375 219.886719 L 456.609375 224.117188 L 452.953125 224.117188 Z M 452.953125 228.734375 L 456.609375 228.734375 L 456.609375 233 L 452.953125 233 Z M 438.035156 228.265625 L 442.160156 228.265625 L 442.160156 233 L 438.035156 233 Z M 433.371094 235.226563 L 433.371094 237.21875 L 419.027344 237.21875 L 419.027344 235.226563 Z M 418.921875 235.226563 L 418.921875 237.21875 L 404.578125 237.21875 L 404.578125 235.226563 Z M 394.6875 228.265625 L 398.8125 228.265625 L 398.8125 233 L 394.6875 233 Z M 388.417969 223.8125 L 389.941406 224.84375 C 389.269531 226.375 388.609375 227.419922 387.960938 227.978516 C 387.3125 228.537109 386.644531 228.816406 385.957031 228.816406 C 384.863281 228.753906 383.876953 228.185547 382.998047 227.111328 C 382.119141 226.037109 381.5 225.275391 381.140625 224.826172 C 380.78125 224.376953 380.316406 224.15625 379.746094 224.164063 C 379.144531 224.164063 378.6875 224.447266 378.375 225.013672 C 378.0625 225.580078 377.734375 226.300781 377.390625 227.175781 L 375.832031 226.285156 C 376.285156 224.839844 376.871094 223.773438 377.589844 223.085938 C 378.308594 222.398438 379.03125 222.054688 379.757813 222.054688 C 381.078125 222.039063 382.259766 222.820313 383.302734 224.398438 C 384.345703 225.976563 385.230469 226.765625 385.957031 226.765625 C 386.574219 226.765625 387.078125 226.427734 387.46875 225.751953 C 387.859375 225.076172 388.175781 224.429688 388.417969 223.8125 Z M 373.96875 223.8125 L 375.492188 224.84375 C 374.820313 226.375 374.160156 227.419922 373.511719 227.978516 C 372.863281 228.537109 372.195313 228.816406 371.507813 228.816406 C 370.414063 228.753906 369.427734 228.185547 368.548828 227.111328 C 367.669922 226.037109 367.050781 225.275391 366.691406 224.826172 C 366.332031 224.376953 365.867188 224.15625 365.296875 224.164063 C 364.695313 224.164063 364.238281 224.447266 363.925781 225.013672 C 363.613281 225.580078 363.285156 226.300781 362.941406 227.175781 L 361.382813 226.285156 C 361.835938 224.839844 362.421875 223.773438 363.140625 223.085938 C 363.859375 222.398438 364.582031 222.054688 365.308594 222.054688 C 366.628906 222.039063 367.810547 222.820313 368.853516 224.398438 C 369.896484 225.976563 370.78125 226.765625 371.507813 226.765625 C 372.125 226.765625 372.628906 226.427734 373.019531 225.751953 C 373.410156 225.076172 373.726563 224.429688 373.96875 223.8125 Z M 359.519531 223.8125 L 361.042969 224.84375 C 360.371094 226.375 359.710938 227.419922 359.0625 227.978516 C 358.414063 228.537109 357.746094 228.816406 357.058594 228.816406 C 355.964844 228.753906 354.978516 228.185547 354.099609 227.111328 C 353.220703 226.037109 352.601563 225.275391 352.242188 224.826172 C 351.882813 224.376953 351.417969 224.15625 350.847656 224.164063 C 350.246094 224.164063 349.789063 224.447266 349.476563 225.013672 C 349.164063 225.580078 348.835938 226.300781 348.492188 227.175781 L 346.933594 226.285156 C 347.386719 224.839844 347.972656 223.773438 348.691406 223.085938 C 349.410156 222.398438 350.132813 222.054688 350.859375 222.054688 C 352.179688 222.039063 353.361328 222.820313 354.404297 224.398438 C 355.447266 225.976563 356.332031 226.765625 357.058594 226.765625 C 357.675781 226.765625 358.179688 226.427734 358.570313 225.751953 C 358.960938 225.076172 359.277344 224.429688 359.519531 223.8125 Z M 333.527344 224.515625 L 345.949219 224.515625 L 345.949219 226.496094 L 333.527344 226.496094 Z M 322.910156 219.886719 L 326.566406 219.886719 L 326.566406 224.117188 L 322.910156 224.117188 Z M 322.910156 228.734375 L 326.566406 228.734375 L 326.566406 233 L 322.910156 233 Z M 308.460938 219.886719 L 312.117188 219.886719 L 312.117188 224.117188 L 308.460938 224.117188 Z M 308.460938 228.734375 L 312.117188 228.734375 L 312.117188 233 L 308.460938 233 Z M 294.011719 219.886719 L 297.667969 219.886719 L 297.667969 224.117188 L 294.011719 224.117188 Z M 294.011719 228.734375 L 297.667969 228.734375 L 297.667969 233 L 294.011719 233 Z M 279.5625 219.886719 L 283.21875 219.886719 L 283.21875 224.117188 L 279.5625 224.117188 Z M 279.5625 228.734375 L 283.21875 228.734375 L 283.21875 233 L 279.5625 233 Z M 272.824219 223.8125 L 274.347656 224.84375 C 273.675781 226.375 273.015625 227.419922 272.367188 227.978516 C 271.71875 228.537109 271.050781 228.816406 270.363281 228.816406 C 269.269531 228.753906 268.283203 228.185547 267.404297 227.111328 C 266.525391 226.037109 265.90625 225.275391 265.546875 224.826172 C 265.1875 224.376953 264.722656 224.15625 264.152344 224.164063 C 263.550781 224.164063 263.09375 224.447266 262.78125 225.013672 C 262.46875 225.580078 262.140625 226.300781 261.796875 227.175781 L 260.238281 226.285156 C 260.691406 224.839844 261.277344 223.773438 261.996094 223.085938 C 262.714844 222.398438 263.4375 222.054688 264.164063 222.054688 C 265.484375 222.039063 266.666016 222.820313 267.708984 224.398438 C 268.751953 225.976563 269.636719 226.765625 270.363281 226.765625 C 270.980469 226.765625 271.484375 226.427734 271.875 225.751953 C 272.265625 225.076172 272.582031 224.429688 272.824219 223.8125 Z M 251.226563 213.804688 L 254.519531 218.210938 L 252.714844 218.210938 L 248.90625 213.804688 Z M 121.183594 213.804688 L 124.476563 218.210938 L 122.671875 218.210938 L 118.863281 213.804688 Z M 113.882813 223.8125 L 115.40625 224.84375 C 114.734375 226.375 114.074219 227.419922 113.425781 227.978516 C 112.777344 228.537109 112.109375 228.816406 111.421875 228.816406 C 110.328117 228.753906 109.341805 228.185547 108.462891 227.111328 C 107.583977 226.037109 106.964844 225.275391 106.605469 224.826172 C 106.246094 224.376953 105.78125 224.15625 105.210938 224.164063 C 104.609375 224.164063 104.152344 224.447266 103.839844 225.013672 C 103.527344 225.580078 103.199219 226.300781 102.855469 227.175781 L 101.296875 226.285156 C 101.75 224.839844 102.335938 223.773438 103.054688 223.085938 C 103.773438 222.398438 104.496094 222.054688 105.222656 222.054688 C 106.542976 222.039063 107.724602 222.820313 108.767578 224.398438 C 109.810555 225.976563 110.695313 226.765625 111.421875 226.765625 C 112.039063 226.765625 112.542969 226.427734 112.933594 225.751953 C 113.324219 225.076172 113.640625 224.429688 113.882813 223.8125 Z M 92.285156 213.804688 L 95.578125 218.210938 L 93.773438 218.210938 L 89.964844 213.804688 Z M 77.835938 213.804688 L 81.128906 218.210938 L 79.324219 218.210938 L 75.515625 213.804688 Z M 70.535156 223.8125 L 72.058594 224.84375 C 71.386719 226.375 70.726563 227.419922 70.078125 227.978516 C 69.429688 228.537109 68.761719 228.816406 68.074219 228.816406 C 66.980461 228.753906 65.994148 228.185547 65.115234 227.111328 C 64.23632 226.037109 63.617188 225.275391 63.257813 224.826172 C 62.898438 224.376953 62.433594 224.15625 61.863281 224.164063 C 61.261719 224.164063 60.804688 224.447266 60.492188 225.013672 C 60.179688 225.580078 59.851563 226.300781 59.507813 227.175781 L 57.949219 226.285156 C 58.402348 224.839844 58.988277 223.773438 59.707031 223.085938 C 60.425781 222.398438 61.148438 222.054688 61.875 222.054688 C 63.19532 222.039063 64.376945 222.820313 65.419922 224.398438 C 66.462898 225.976563 67.347656 226.765625 68.074219 226.765625 C 68.691406 226.765625 69.195313 226.427734 69.585938 225.751953 C 69.976563 225.076172 70.292969 224.429688 70.535156 223.8125 Z M 56.085938 223.8125 L 57.609375 224.84375 C 56.937496 226.375 56.277348 227.419922 55.628906 227.978516 C 54.980465 228.537109 54.312504 228.816406 53.625 228.816406 C 52.531246 228.753906 51.544926 228.185547 50.666016 227.111328 C 49.787106 226.037109 49.167969 225.275391 48.808594 224.826172 C 48.449219 224.376953 47.984379 224.15625 47.414063 224.164063 C 46.812496 224.164063 46.355469 224.447266 46.042969 225.013672 C 45.730469 225.580078 45.402344 226.300781 45.058594 227.175781 L 43.5 226.285156 C 43.953129 224.839844 44.539059 223.773438 45.257813 223.085938 C 45.976566 222.398438 46.699215 222.054688 47.425781 222.054688 C 48.746101 222.039063 49.927731 222.820313 50.970703 224.398438 C 52.013676 225.976563 52.898434 226.765625 53.625 226.765625 C 54.242191 226.765625 54.74609 226.427734 55.136719 225.751953 C 55.527348 225.076172 55.84375 224.429688 56.085938 223.8125 Z M 41.636719 223.8125 L 43.160156 224.84375 C 42.488277 226.375 41.828129 227.419922 41.179688 227.978516 C 40.531246 228.537109 39.863285 228.816406 39.175781 228.816406 C 38.082027 228.753906 37.095707 228.185547 36.216797 227.111328 C 35.337887 226.037109 34.71875 225.275391 34.359375 224.826172 C 34 224.376953 33.53516 224.15625 32.964844 224.164063 C 32.363277 224.164063 31.90625 224.447266 31.59375 225.013672 C 31.28125 225.580078 30.953125 226.300781 30.609375 227.175781 L 29.050781 226.285156 C 29.503906 224.839844 30.08984 223.773438 30.808594 223.085938 C 31.527348 222.398438 32.249996 222.054688 32.976563 222.054688 C 34.296883 222.039063 35.478512 222.820313 36.521484 224.398438 C 37.564457 225.976563 38.449215 226.765625 39.175781 226.765625 C 39.792973 226.765625 40.296871 226.427734 40.6875 225.751953 C 41.078129 225.076172 41.394531 224.429688 41.636719 223.8125 Z M 20.039063 213.804688 L 23.332031 218.210938 L 21.527344 218.210938 L 17.71875 213.804688 Z M 12.738281 223.8125 L 14.261719 224.84375 C 13.58984 226.375 12.929691 227.419922 12.28125 227.978516 C 11.632809 228.537109 10.964848 228.816406 10.277344 228.816406 C 9.183588 228.753906 8.19727 228.185547 7.318359 227.111328 C 6.439449 226.037109 5.820314 225.275391 5.460938 224.826172 C 5.101561 224.376953 4.636722 224.15625 4.066406 224.164063 C 3.464841 224.164063 3.007814 224.447266 2.695313 225.013672 C 2.382811 225.580078 2.054689 226.300781 1.710938 227.175781 L 0.152344 226.285156 C 0.605471 224.839844 1.191402 223.773438 1.910156 223.085938 C 2.62891 222.398438 3.351559 222.054688 4.078125 222.054688 C 5.398444 222.039063 6.580072 222.820313 7.623047 224.398438 C 8.66602 225.976563 9.550777 226.765625 10.277344 226.765625 C 10.894534 226.765625 11.398436 226.427734 11.789063 225.751953 C 12.179689 225.076172 12.496094 224.429688 12.738281 223.8125 Z M 751.253906 207.226563 L 751.253906 209.21875 L 736.910156 209.21875 L 736.910156 207.226563 Z M 736.804688 207.226563 L 736.804688 209.21875 L 722.460938 209.21875 L 722.460938 207.226563 Z M 712.570313 200.265625 L 716.695313 200.265625 L 716.695313 205 L 712.570313 205 Z M 694.757813 196.515625 L 707.179688 196.515625 L 707.179688 198.496094 L 694.757813 198.496094 Z M 691.851563 195.8125 L 693.375 196.84375 C 692.703125 198.375 692.042969 199.419922 691.394531 199.978516 C 690.746094 200.537109 690.078125 200.816406 689.390625 200.816406 C 688.296875 200.753906 687.310547 200.185547 686.431641 199.111328 C 685.552734 198.037109 684.933594 197.275391 684.574219 196.826172 C 684.214844 196.376953 683.75 196.15625 683.179688 196.164063 C 682.578125 196.164063 682.121094 196.447266 681.808594 197.013672 C 681.496094 197.580078 681.167969 198.300781 680.824219 199.175781 L 679.265625 198.285156 C 679.71875 196.839844 680.304688 195.773438 681.023438 195.085938 C 681.742188 194.398438 682.464844 194.054688 683.191406 194.054688 C 684.511719 194.039063 685.693359 194.820313 686.736328 196.398438 C 687.779297 197.976563 688.664063 198.765625 689.390625 198.765625 C 690.007813 198.765625 690.511719 198.427734 690.902344 197.751953 C 691.292969 197.076172 691.609375 196.429688 691.851563 195.8125 Z M 670.253906 185.804688 L 673.546875 190.210938 L 671.742188 190.210938 L 667.933594 185.804688 Z M 655.394531 200.769531 L 659.050781 200.769531 L 659.050781 203.875 L 656.742188 208.351563 L 654.234375 208.351563 L 655.394531 203.875 Z M 655.242188 191.886719 L 658.898438 191.886719 L 658.898438 196.117188 L 655.242188 196.117188 Z M 640.792969 191.886719 L 644.449219 191.886719 L 644.449219 196.117188 L 640.792969 196.117188 Z M 640.792969 200.734375 L 644.449219 200.734375 L 644.449219 205 L 640.792969 205 Z M 626.90625 185.804688 L 630.199219 190.210938 L 628.394531 190.210938 L 624.585938 185.804688 Z M 596.976563 200.265625 L 601.101563 200.265625 L 601.101563 205 L 596.976563 205 Z M 582.996094 191.886719 L 586.652344 191.886719 L 586.652344 196.117188 L 582.996094 196.117188 Z M 582.996094 200.734375 L 586.652344 200.734375 L 586.652344 205 L 582.996094 205 Z M 568.699219 200.769531 L 572.355469 200.769531 L 572.355469 203.875 L 570.046875 208.351563 L 567.539063 208.351563 L 568.699219 203.875 Z M 568.546875 191.886719 L 572.203125 191.886719 L 572.203125 196.117188 L 568.546875 196.117188 Z M 553.628906 200.265625 L 557.753906 200.265625 L 557.753906 205 L 553.628906 205 Z M 495.832031 200.265625 L 499.957031 200.265625 L 499.957031 205 L 495.832031 205 Z M 481.851563 191.886719 L 485.507813 191.886719 L 485.507813 196.117188 L 481.851563 196.117188 Z M 481.851563 200.734375 L 485.507813 200.734375 L 485.507813 205 L 481.851563 205 Z M 467.402344 191.886719 L 471.058594 191.886719 L 471.058594 196.117188 L 467.402344 196.117188 Z M 467.402344 200.734375 L 471.058594 200.734375 L 471.058594 205 L 467.402344 205 Z M 453.105469 200.769531 L 456.761719 200.769531 L 456.761719 203.875 L 454.453125 208.351563 L 451.945313 208.351563 L 453.105469 203.875 Z M 452.953125 191.886719 L 456.609375 191.886719 L 456.609375 196.117188 L 452.953125 196.117188 Z M 439.066406 185.804688 L 442.359375 190.210938 L 440.554688 190.210938 L 436.746094 185.804688 Z M 366.820313 185.804688 L 370.113281 190.210938 L 368.308594 190.210938 L 364.5 185.804688 Z M 357.855469 186.871094 L 357.855469 194.042969 L 355.230469 194.042969 L 355.230469 186.871094 Z M 351.609375 186.871094 L 351.609375 194.042969 L 348.984375 194.042969 L 348.984375 186.871094 Z M 337.511719 200.769531 L 341.167969 200.769531 L 341.167969 203.875 L 338.859375 208.351563 L 336.351563 208.351563 L 337.511719 203.875 Z M 337.359375 191.886719 L 341.015625 191.886719 L 341.015625 196.117188 L 337.359375 196.117188 Z M 322.910156 191.886719 L 326.566406 191.886719 L 326.566406 196.117188 L 322.910156 196.117188 Z M 322.910156 200.734375 L 326.566406 200.734375 L 326.566406 205 L 322.910156 205 Z M 308.460938 191.886719 L 312.117188 191.886719 L 312.117188 196.117188 L 308.460938 196.117188 Z M 308.460938 200.734375 L 312.117188 200.734375 L 312.117188 205 L 308.460938 205 Z M 294.164063 200.769531 L 297.820313 200.769531 L 297.820313 203.875 L 295.511719 208.351563 L 293.003906 208.351563 L 294.164063 203.875 Z M 294.011719 191.886719 L 297.667969 191.886719 L 297.667969 196.117188 L 294.011719 196.117188 Z M 279.714844 200.769531 L 283.371094 200.769531 L 283.371094 203.875 L 280.769531 208.925781 L 278.425781 208.9375 L 279.714844 203.875 Z M 245.53125 207.226563 L 245.53125 209.21875 L 231.1875 209.21875 L 231.1875 207.226563 Z M 231.082031 207.226563 L 231.082031 209.21875 L 216.738281 209.21875 L 216.738281 207.226563 Z M 216.632813 207.226563 L 216.632813 209.21875 L 202.289063 209.21875 L 202.289063 207.226563 Z M 192.398438 200.265625 L 196.523438 200.265625 L 196.523438 205 L 192.398438 205 Z M 178.570313 200.769531 L 182.226563 200.769531 L 182.226563 203.875 L 179.625 208.925781 L 177.28125 208.9375 L 178.570313 203.875 Z M 163.5 200.265625 L 167.625 200.265625 L 167.625 205 L 163.5 205 Z M 149.519531 191.886719 L 153.175781 191.886719 L 153.175781 196.117188 L 149.519531 196.117188 Z M 149.519531 200.734375 L 153.175781 200.734375 L 153.175781 205 L 149.519531 205 Z M 135.070313 191.886719 L 138.726563 191.886719 L 138.726563 196.117188 L 135.070313 196.117188 Z M 135.070313 200.734375 L 138.726563 200.734375 L 138.726563 205 L 135.070313 205 Z M 120.152344 200.265625 L 124.277344 200.265625 L 124.277344 205 L 120.152344 205 Z M 106.324219 200.769531 L 109.980469 200.769531 L 109.980469 203.875 L 107.671875 208.351563 L 105.164063 208.351563 L 106.324219 203.875 Z M 106.171875 191.886719 L 109.828125 191.886719 L 109.828125 196.117188 L 106.171875 196.117188 Z M 91.875 200.769531 L 95.53125 200.769531 L 95.53125 203.875 L 92.929688 208.925781 L 90.585938 208.9375 L 91.875 203.875 Z M 48.527344 200.769531 L 52.183594 200.769531 L 52.183594 203.875 L 49.875 208.351563 L 47.367188 208.351563 L 48.527344 203.875 Z M 48.375 191.886719 L 52.03125 191.886719 L 52.03125 196.117188 L 48.375 196.117188 Z M 39.316406 187.503906 L 41.542969 187.503906 L 32.332031 207.226563 L 30.09375 207.226563 Z M 664.558594 179.226563 L 664.558594 181.21875 L 650.214844 181.21875 L 650.214844 179.226563 Z M 640.324219 172.265625 L 644.449219 172.265625 L 644.449219 177 L 640.324219 177 Z M 634.054688 167.8125 L 635.578125 168.84375 C 634.90625 170.375 634.246094 171.419922 633.597656 171.978516 C 632.949219 172.537109 632.28125 172.816406 631.59375 172.816406 C 630.5 172.753906 629.513672 172.185547 628.634766 171.111328 C 627.755859 170.037109 627.136719 169.275391 626.777344 168.826172 C 626.417969 168.376953 625.953125 168.15625 625.382813 168.164063 C 624.78125 168.164063 624.324219 168.447266 624.011719 169.013672 C 623.699219 169.580078 623.371094 170.300781 623.027344 171.175781 L 621.46875 170.285156 C 621.921875 168.839844 622.507813 167.773438 623.226563 167.085938 C 623.945313 166.398438 624.667969 166.054688 625.394531 166.054688 C 626.714844 166.039063 627.896484 166.820313 628.939453 168.398438 C 629.982422 169.976563 630.867188 170.765625 631.59375 170.765625 C 632.210938 170.765625 632.714844 170.427734 633.105469 169.751953 C 633.496094 169.076172 633.8125 168.429688 634.054688 167.8125 Z M 612.457031 157.804688 L 615.75 162.210938 L 613.945313 162.210938 L 610.136719 157.804688 Z M 582.527344 172.265625 L 586.652344 172.265625 L 586.652344 177 L 582.527344 177 Z M 482.414063 157.804688 L 485.707031 162.210938 L 483.902344 162.210938 L 480.09375 157.804688 Z M 467.402344 163.886719 L 471.058594 163.886719 L 471.058594 168.117188 L 467.402344 168.117188 Z M 467.402344 172.734375 L 471.058594 172.734375 L 471.058594 177 L 467.402344 177 Z M 453.105469 172.769531 L 456.761719 172.769531 L 456.761719 175.875 L 454.453125 180.351563 L 451.945313 180.351563 L 453.105469 175.875 Z M 452.953125 163.886719 L 456.609375 163.886719 L 456.609375 168.117188 L 452.953125 168.117188 Z M 438.035156 172.265625 L 442.160156 172.265625 L 442.160156 177 L 438.035156 177 Z M 351.960938 172.769531 L 355.617188 172.769531 L 355.617188 175.875 L 353.308594 180.351563 L 350.800781 180.351563 L 351.960938 175.875 Z M 351.808594 163.886719 L 355.464844 163.886719 L 355.464844 168.117188 L 351.808594 168.117188 Z M 337.359375 163.886719 L 341.015625 163.886719 L 341.015625 168.117188 L 337.359375 168.117188 Z M 337.359375 172.734375 L 341.015625 172.734375 L 341.015625 177 L 337.359375 177 Z M 322.910156 163.886719 L 326.566406 163.886719 L 326.566406 168.117188 L 322.910156 168.117188 Z M 322.910156 172.734375 L 326.566406 172.734375 L 326.566406 177 L 322.910156 177 Z M 308.613281 172.769531 L 312.269531 172.769531 L 312.269531 175.875 L 309.667969 180.925781 L 307.324219 180.9375 L 308.613281 175.875 Z M 268.78125 158.742188 L 268.78125 166.042969 L 266.15625 166.042969 L 266.15625 158.742188 Z M 250.816406 172.769531 L 254.472656 172.769531 L 254.472656 175.875 L 252.164063 180.351563 L 249.65625 180.351563 L 250.816406 175.875 Z M 250.664063 163.886719 L 254.320313 163.886719 L 254.320313 168.117188 L 250.664063 168.117188 Z M 235.746094 172.265625 L 239.871094 172.265625 L 239.871094 177 L 235.746094 177 Z M 196.535156 158.742188 L 196.535156 166.042969 L 193.910156 166.042969 L 193.910156 158.742188 Z M 184.464844 158.871094 L 184.464844 166.042969 L 181.839844 166.042969 L 181.839844 158.871094 Z M 178.21875 158.871094 L 178.21875 166.042969 L 175.59375 166.042969 L 175.59375 158.871094 Z M 164.121094 172.769531 L 167.777344 172.769531 L 167.777344 175.875 L 165.46875 180.351563 L 162.960938 180.351563 L 164.121094 175.875 Z M 163.96875 163.886719 L 167.625 163.886719 L 167.625 168.117188 L 163.96875 168.117188 Z M 149.519531 163.886719 L 153.175781 163.886719 L 153.175781 168.117188 L 149.519531 168.117188 Z M 149.519531 172.734375 L 153.175781 172.734375 L 153.175781 177 L 149.519531 177 Z M 135.222656 172.769531 L 138.878906 172.769531 L 138.878906 175.875 L 136.570313 180.351563 L 134.0625 180.351563 L 135.222656 175.875 Z M 135.070313 163.886719 L 138.726563 163.886719 L 138.726563 168.117188 L 135.070313 168.117188 Z M 121.183594 157.804688 L 124.476563 162.210938 L 122.671875 162.210938 L 118.863281 157.804688 Z M 77.425781 172.769531 L 81.082031 172.769531 L 81.082031 175.875 L 78.773438 180.351563 L 76.265625 180.351563 L 77.425781 175.875 Z M 77.273438 163.886719 L 80.929688 163.886719 L 80.929688 168.117188 L 77.273438 168.117188 Z M 68.214844 159.503906 L 70.441406 159.503906 L 61.230469 179.226563 L 58.992188 179.226563 Z M 48.527344 172.769531 L 52.183594 172.769531 L 52.183594 175.875 L 49.582031 180.925781 L 47.238281 180.9375 L 48.527344 175.875 Z M 606.761719 151.226563 L 606.761719 153.21875 L 592.417969 153.21875 L 592.417969 151.226563 Z M 582.527344 144.265625 L 586.652344 144.265625 L 586.652344 149 L 582.527344 149 Z M 576.257813 139.8125 L 577.78125 140.84375 C 577.109375 142.375 576.449219 143.419922 575.800781 143.978516 C 575.152344 144.537109 574.484375 144.816406 573.796875 144.816406 C 572.703125 144.753906 571.716797 144.185547 570.837891 143.111328 C 569.958984 142.037109 569.339844 141.275391 568.980469 140.826172 C 568.621094 140.376953 568.15625 140.15625 567.585938 140.164063 C 566.984375 140.164063 566.527344 140.447266 566.214844 141.013672 C 565.902344 141.580078 565.574219 142.300781 565.230469 143.175781 L 563.671875 142.285156 C 564.125 140.839844 564.710938 139.773438 565.429688 139.085938 C 566.148438 138.398438 566.871094 138.054688 567.597656 138.054688 C 568.917969 138.039063 570.099609 138.820313 571.142578 140.398438 C 572.185547 141.976563 573.070313 142.765625 573.796875 142.765625 C 574.414063 142.765625 574.917969 142.427734 575.308594 141.751953 C 575.699219 141.076172 576.015625 140.429688 576.257813 139.8125 Z M 554.660156 129.804688 L 557.953125 134.210938 L 556.148438 134.210938 L 552.339844 129.804688 Z M 539.800781 144.769531 L 543.457031 144.769531 L 543.457031 147.875 L 541.148438 152.351563 L 538.640625 152.351563 L 539.800781 147.875 Z M 539.648438 135.886719 L 543.304688 135.886719 L 543.304688 140.117188 L 539.648438 140.117188 Z M 531.246094 130.871094 L 531.246094 138.042969 L 528.621094 138.042969 L 528.621094 130.871094 Z M 525 130.871094 L 525 138.042969 L 522.375 138.042969 L 522.375 130.871094 Z M 482.414063 129.804688 L 485.707031 134.210938 L 483.902344 134.210938 L 480.09375 129.804688 Z M 467.402344 135.886719 L 471.058594 135.886719 L 471.058594 140.117188 L 467.402344 140.117188 Z M 467.402344 144.734375 L 471.058594 144.734375 L 471.058594 149 L 467.402344 149 Z M 452.953125 135.886719 L 456.609375 135.886719 L 456.609375 140.117188 L 452.953125 140.117188 Z M 452.953125 144.734375 L 456.609375 144.734375 L 456.609375 149 L 452.953125 149 Z M 438.035156 144.265625 L 442.160156 144.265625 L 442.160156 149 L 438.035156 149 Z M 337.511719 144.769531 L 341.167969 144.769531 L 341.167969 147.875 L 338.859375 152.351563 L 336.351563 152.351563 L 337.511719 147.875 Z M 337.359375 135.886719 L 341.015625 135.886719 L 341.015625 140.117188 L 337.359375 140.117188 Z M 323.0625 144.769531 L 326.71875 144.769531 L 326.71875 147.875 L 324.410156 152.351563 L 321.902344 152.351563 L 323.0625 147.875 Z M 322.910156 135.886719 L 326.566406 135.886719 L 326.566406 140.117188 L 322.910156 140.117188 Z M 265.265625 144.769531 L 268.921875 144.769531 L 268.921875 147.875 L 266.320313 152.925781 L 263.976563 152.9375 L 265.265625 147.875 Z M 207.46875 144.769531 L 211.125 144.769531 L 211.125 147.875 L 208.816406 152.351563 L 206.308594 152.351563 L 207.46875 147.875 Z M 207.316406 135.886719 L 210.972656 135.886719 L 210.972656 140.117188 L 207.316406 140.117188 Z M 193.019531 144.769531 L 196.675781 144.769531 L 196.675781 147.875 L 194.367188 152.351563 L 191.859375 152.351563 L 193.019531 147.875 Z M 192.867188 135.886719 L 196.523438 135.886719 L 196.523438 140.117188 L 192.867188 140.117188 Z M 178.980469 129.804688 L 182.273438 134.210938 L 180.46875 134.210938 L 176.660156 129.804688 Z M 163.96875 135.886719 L 167.625 135.886719 L 167.625 140.117188 L 163.96875 140.117188 Z M 163.96875 144.734375 L 167.625 144.734375 L 167.625 149 L 163.96875 149 Z M 149.671875 144.769531 L 153.328125 144.769531 L 153.328125 147.875 L 151.019531 152.351563 L 148.511719 152.351563 L 149.671875 147.875 Z M 149.519531 135.886719 L 153.175781 135.886719 L 153.175781 140.117188 L 149.519531 140.117188 Z M 142.78125 139.8125 L 144.304688 140.84375 C 143.632813 142.375 142.972656 143.419922 142.324219 143.978516 C 141.675781 144.537109 141.007813 144.816406 140.320313 144.816406 C 139.226563 144.753906 138.240234 144.185547 137.361328 143.111328 C 136.482422 142.037109 135.863281 141.275391 135.503906 140.826172 C 135.144531 140.376953 134.679688 140.15625 134.109375 140.164063 C 133.507813 140.164063 133.050781 140.447266 132.738281 141.013672 C 132.425781 141.580078 132.097656 142.300781 131.753906 143.175781 L 130.195313 142.285156 C 130.648438 140.839844 131.234375 139.773438 131.953125 139.085938 C 132.671875 138.398438 133.394531 138.054688 134.121094 138.054688 C 135.441406 138.039063 136.623047 138.820313 137.666016 140.398438 C 138.708984 141.976563 139.59375 142.765625 140.320313 142.765625 C 140.9375 142.765625 141.441406 142.427734 141.832031 141.751953 C 142.222656 141.076172 142.539063 140.429688 142.78125 139.8125 Z M 120.621094 135.886719 L 124.277344 135.886719 L 124.277344 140.117188 L 120.621094 140.117188 Z M 120.621094 144.734375 L 124.277344 144.734375 L 124.277344 149 L 120.621094 149 Z M 113.882813 139.8125 L 115.40625 140.84375 C 114.734375 142.375 114.074219 143.419922 113.425781 143.978516 C 112.777344 144.537109 112.109375 144.816406 111.421875 144.816406 C 110.328117 144.753906 109.341805 144.185547 108.462891 143.111328 C 107.583977 142.037109 106.964844 141.275391 106.605469 140.826172 C 106.246094 140.376953 105.78125 140.15625 105.210938 140.164063 C 104.609375 140.164063 104.152344 140.447266 103.839844 141.013672 C 103.527344 141.580078 103.199219 142.300781 102.855469 143.175781 L 101.296875 142.285156 C 101.75 140.839844 102.335938 139.773438 103.054688 139.085938 C 103.773438 138.398438 104.496094 138.054688 105.222656 138.054688 C 106.542976 138.039063 107.724602 138.820313 108.767578 140.398438 C 109.810555 141.976563 110.695313 142.765625 111.421875 142.765625 C 112.039063 142.765625 112.542969 142.427734 112.933594 141.751953 C 113.324219 141.076172 113.640625 140.429688 113.882813 139.8125 Z M 91.875 144.769531 L 95.53125 144.769531 L 95.53125 147.875 L 93.222656 152.351563 L 90.714844 152.351563 L 91.875 147.875 Z M 91.722656 135.886719 L 95.378906 135.886719 L 95.378906 140.117188 L 91.722656 140.117188 Z M 77.425781 144.769531 L 81.082031 144.769531 L 81.082031 147.875 L 78.480469 152.925781 L 76.136719 152.9375 L 77.425781 147.875 Z M 539.179688 116.265625 L 543.304688 116.265625 L 543.304688 121 L 539.179688 121 Z M 521.367188 112.515625 L 533.789063 112.515625 L 533.789063 114.496094 L 521.367188 114.496094 Z M 511.3125 101.804688 L 514.605469 106.210938 L 512.800781 106.210938 L 508.992188 101.804688 Z M 482.003906 116.769531 L 485.660156 116.769531 L 485.660156 119.875 L 483.351563 124.351563 L 480.84375 124.351563 L 482.003906 119.875 Z M 481.851563 107.886719 L 485.507813 107.886719 L 485.507813 112.117188 L 481.851563 112.117188 Z M 467.402344 107.886719 L 471.058594 107.886719 L 471.058594 112.117188 L 467.402344 112.117188 Z M 467.402344 116.734375 L 471.058594 116.734375 L 471.058594 121 L 467.402344 121 Z M 409.757813 116.769531 L 413.414063 116.769531 L 413.414063 119.875 L 411.105469 124.351563 L 408.597656 124.351563 L 409.757813 119.875 Z M 409.605469 107.886719 L 413.261719 107.886719 L 413.261719 112.117188 L 409.605469 112.117188 Z M 398.824219 102.742188 L 398.824219 110.042969 L 396.199219 110.042969 L 396.199219 102.742188 Z M 355.476563 102.742188 L 355.476563 110.042969 L 352.851563 110.042969 L 352.851563 102.742188 Z M 337.359375 107.886719 L 341.015625 107.886719 L 341.015625 112.117188 L 337.359375 112.117188 Z M 337.359375 116.734375 L 341.015625 116.734375 L 341.015625 121 L 337.359375 121 Z M 322.910156 107.886719 L 326.566406 107.886719 L 326.566406 112.117188 L 322.910156 112.117188 Z M 322.910156 116.734375 L 326.566406 116.734375 L 326.566406 121 L 322.910156 121 Z M 309.023438 101.804688 L 312.316406 106.210938 L 310.511719 106.210938 L 306.703125 101.804688 Z M 221.917969 116.769531 L 225.574219 116.769531 L 225.574219 119.875 L 223.265625 124.351563 L 220.757813 124.351563 L 221.917969 119.875 Z M 221.765625 107.886719 L 225.421875 107.886719 L 225.421875 112.117188 L 221.765625 112.117188 Z M 212.707031 103.503906 L 214.933594 103.503906 L 205.722656 123.226563 L 203.484375 123.226563 Z M 202.183594 123.226563 L 202.183594 125.21875 L 187.839844 125.21875 L 187.839844 123.226563 Z M 495.832031 88.265625 L 499.957031 88.265625 L 499.957031 93 L 495.832031 93 Z M 480.257813 75.503906 L 489.46875 95.226563 L 487.242188 95.226563 L 478.019531 75.503906 Z M 467.964844 73.804688 L 471.257813 78.210938 L 469.453125 78.210938 L 465.644531 73.804688 Z M 453.105469 88.769531 L 456.761719 88.769531 L 456.761719 91.875 L 454.453125 96.351563 L 451.945313 96.351563 L 453.105469 91.875 Z M 452.953125 79.886719 L 456.609375 79.886719 L 456.609375 84.117188 L 452.953125 84.117188 Z M 395.308594 88.769531 L 398.964844 88.769531 L 398.964844 91.875 L 396.65625 96.351563 L 394.148438 96.351563 L 395.308594 91.875 Z M 395.15625 79.886719 L 398.8125 79.886719 L 398.8125 84.117188 L 395.15625 84.117188 Z M 380.707031 79.886719 L 384.363281 79.886719 L 384.363281 84.117188 L 380.707031 84.117188 Z M 380.707031 88.734375 L 384.363281 88.734375 L 384.363281 93 L 380.707031 93 Z M 351.960938 88.769531 L 355.617188 88.769531 L 355.617188 91.875 L 353.015625 96.925781 L 350.671875 96.9375 L 351.960938 91.875 Z M 337.359375 79.886719 L 341.015625 79.886719 L 341.015625 84.117188 L 337.359375 84.117188 Z M 337.359375 88.734375 L 341.015625 88.734375 L 341.015625 93 L 337.359375 93 Z M 322.910156 79.886719 L 326.566406 79.886719 L 326.566406 84.117188 L 322.910156 84.117188 Z M 322.910156 88.734375 L 326.566406 88.734375 L 326.566406 93 L 322.910156 93 Z M 308.460938 79.886719 L 312.117188 79.886719 L 312.117188 84.117188 L 308.460938 84.117188 Z M 308.460938 88.734375 L 312.117188 88.734375 L 312.117188 93 L 308.460938 93 Z M 256.054688 75.503906 L 258.28125 75.503906 L 249.070313 95.226563 L 246.832031 95.226563 Z M 235.746094 88.265625 L 239.871094 88.265625 L 239.871094 93 L 235.746094 93 Z M 221.917969 88.769531 L 225.574219 88.769531 L 225.574219 91.875 L 222.972656 96.925781 L 220.628906 96.9375 L 221.917969 91.875 Z M 451.359375 47.503906 L 460.570313 67.226563 L 458.34375 67.226563 L 449.121094 47.503906 Z M 444.550781 46.871094 L 444.550781 54.042969 L 441.925781 54.042969 L 441.925781 46.871094 Z M 438.304688 46.871094 L 438.304688 54.042969 L 435.679688 54.042969 L 435.679688 46.871094 Z M 394.6875 60.265625 L 398.8125 60.265625 L 398.8125 65 L 394.6875 65 Z M 336.890625 60.265625 L 341.015625 60.265625 L 341.015625 65 L 336.890625 65 Z M 322.910156 51.886719 L 326.566406 51.886719 L 326.566406 56.117188 L 322.910156 56.117188 Z M 322.910156 60.734375 L 326.566406 60.734375 L 326.566406 65 L 322.910156 65 Z M 309.023438 45.804688 L 312.316406 50.210938 L 310.511719 50.210938 L 306.703125 45.804688 Z M 294.164063 60.769531 L 297.820313 60.769531 L 297.820313 63.875 L 295.511719 68.351563 L 293.003906 68.351563 L 294.164063 63.875 Z M 294.011719 51.886719 L 297.667969 51.886719 L 297.667969 56.117188 L 294.011719 56.117188 Z M 284.953125 47.503906 L 287.179688 47.503906 L 277.96875 67.226563 L 275.730469 67.226563 Z M 265.265625 60.769531 L 268.921875 60.769531 L 268.921875 63.875 L 266.320313 68.925781 L 263.976563 68.9375 L 265.265625 63.875 Z M 447.820313 39.226563 L 447.820313 41.21875 L 433.476563 41.21875 L 433.476563 39.226563 Z M 423.585938 32.265625 L 427.710938 32.265625 L 427.710938 37 L 423.585938 37 Z M 417.316406 27.8125 L 418.839844 28.84375 C 418.167969 30.375 417.507813 31.419922 416.859375 31.978516 C 416.210938 32.537109 415.542969 32.816406 414.855469 32.816406 C 413.761719 32.753906 412.775391 32.185547 411.896484 31.111328 C 411.017578 30.037109 410.398438 29.275391 410.039063 28.826172 C 409.679688 28.376953 409.214844 28.15625 408.644531 28.164063 C 408.042969 28.164063 407.585938 28.447266 407.273438 29.013672 C 406.960938 29.580078 406.632813 30.300781 406.289063 31.175781 L 404.730469 30.285156 C 405.183594 28.839844 405.769531 27.773438 406.488281 27.085938 C 407.207031 26.398438 407.929688 26.054688 408.65625 26.054688 C 409.976563 26.039063 411.158203 26.820313 412.201172 28.398438 C 413.244141 29.976563 414.128906 30.765625 414.855469 30.765625 C 415.472656 30.765625 415.976563 30.427734 416.367188 29.751953 C 416.757813 29.076172 417.074219 28.429688 417.316406 27.8125 Z M 395.71875 17.804688 L 399.011719 22.210938 L 397.207031 22.210938 L 393.398438 17.804688 Z M 384.375 18.742188 L 384.375 26.042969 L 381.75 26.042969 L 381.75 18.742188 Z M 323.0625 32.769531 L 326.71875 32.769531 L 326.71875 35.875 L 324.410156 40.351563 L 321.902344 40.351563 L 323.0625 35.875 Z M 322.910156 23.886719 L 326.566406 23.886719 L 326.566406 28.117188 L 322.910156 28.117188 Z M 313.851563 19.503906 L 316.078125 19.503906 L 306.867188 39.226563 L 304.628906 39.226563 Z M 294.164063 32.769531 L 297.820313 32.769531 L 297.820313 35.875 L 295.21875 40.925781 L 292.875 40.9375 L 294.164063 35.875 Z M 390.023438 11.226563 L 390.023438 13.21875 L 375.679688 13.21875 L 375.679688 11.226563 Z M 365.789063 4.265625 L 369.914063 4.265625 L 369.914063 9 L 365.789063 9 Z M 347.976563 0.515625 L 360.398438 0.515625 L 360.398438 2.496094 L 347.976563 2.496094 Z M 336.890625 4.265625 L 341.015625 4.265625 L 341.015625 9 L 336.890625 9 Z M 323.0625 4.769531 L 326.71875 4.769531 L 326.71875 7.875 L 324.117188 12.925781 L 321.773438 12.9375 L 323.0625 7.875 Z"/>
</svg>
